<svg id="Layer_1" xmlns="http://www.w3.org/2000/svg" viewBox="0 0 580.97 181.26" width="581" height="181">
    <style>.st0,.st1{fill:#0d2a4b}.st1{fill-rule:evenodd;clip-rule:evenodd}.st2{fill:#063350}</style>
    <!-- upper horizontal line of upper staff -->
    <path class="st0" d="M182.83 22.5h280.65v1H182.83zM182.83 29.9h280.65v1H182.83zM182.83 35.78h280.65v1H182.83zM182.83 41.67h280.65v1H182.83zM182.83 48.68h280.65v1H182.83zM182.83 89.6h280.65v1H182.83zM182.83 96.99h280.65v1H182.83zM182.83 102.88h280.65v1H182.83zM182.83 108.76h280.65v1H182.83zM182.83 115.77h280.65v1H182.83z"></path>
    <!-- vertical bar at left end of system -->
    <path class="st0" d="M182.52 22.67h1.67v93.94h-1.67zM463.29 22.67h1.67v93.94h-1.67z"></path>
    <!-- beats 1, 2 in upper staff -->
    <path class="st1" d="M324.38 27.95c-1.47.39-2.78.22-3.62-.37V44.57h-.98l-25.19 3.01h-.98l-26.52 3.01h-.98l-25.52 2.68h-.98V34.63c-.01-.09-.02-.19-.02-.28 0-1.96 2.07-4.1 4.62-4.78 2.55-.68 4.62.35 4.62 2.31s-2.07 4.1-4.62 4.78c-1.47.39-2.78.22-3.62-.37v13.83l25.52-2.68V31.95c-.01-.09-.01-.19-.01-.28 0-1.96 2.07-4.1 4.62-4.78 2.55-.68 4.62.35 4.62 2.31s-2.07 4.1-4.62 4.78c-1.47.39-2.78.22-3.62-.37v13.83l26.52-3.01V28.94c-.01-.09-.01-.19-.01-.28 0-1.96 2.07-4.1 4.62-4.78 2.55-.68 4.62.35 4.62 2.31s-2.07 4.1-4.62 4.78c-1.47.39-2.78.22-3.62-.37v13.83l25.19-3.01V25.93c-.01-.09-.02-.19-.02-.28 0-1.96 2.07-4.1 4.62-4.78 2.55-.68 4.62.35 4.62 2.31-.02 1.95-2.09 4.09-4.64 4.77z"></path>
    <!-- staccato marks upper staff -->
    <circle class="st1" cx="244.44" cy="26.51" r="1.43"></circle>
    <circle class="st1" cx="270.27" cy="19.48" r="1.43"></circle>
    <circle class="st1" cx="297.75" cy="18.81" r="1.43"></circle>
    <circle class="st1" cx="324.61" cy="15.8" r="1.43"></circle>
    <!-- 1st, 2nd grace note in upper staff and other stuff -->
    <path class="st1" d="M339.81 14.28c.35-.09.69-.14.99-.13.48-.01.9.09 1.22.28V0h.72c0 .71.16 1.3.56 1.91.41.63 2.2 2.28 2.8 3.46.54 1.07.4 2.98-.42 3.96.17.23.32.46.42.67.6 1.19.36 3.42-.73 4.26 2.41-4.1-1.83-5.76-2.63-5.94V15.85c-.12 1.15-1.34 2.35-2.82 2.75-.35.09-.68.14-.99.13-1.14.02-1.96-.58-1.96-1.54.01-1.18 1.28-2.49 2.84-2.91zm5.72-5.15c1.71-3.57-1.8-5.13-2.78-5.4v.91c0 .71.16 1.3.56 1.91.31.49 1.44 1.57 2.22 2.58zM401.72 17.29c.35-.09.69-.14.99-.13.48-.01.9.09 1.22.28V3.01h.72c0 .71.16 1.3.56 1.91.41.63 2.2 2.28 2.8 3.46.54 1.07.4 2.98-.42 3.96.17.23.32.46.42.67.6 1.19.36 3.42-.73 4.26 2.41-4.1-1.83-5.76-2.63-5.94V18.86c-.12 1.15-1.34 2.35-2.82 2.75-.35.09-.68.14-.99.13-1.14.02-1.96-.58-1.96-1.54.01-1.18 1.28-2.49 2.84-2.91zm5.73-5.14c1.71-3.57-1.8-5.13-2.78-5.4v.91c0 .71.16 1.3.56 1.91.31.48 1.44 1.56 2.22 2.58zM387.54 50.82V27.94c-.01-.09-.01-.19-.01-.28 0-1.96 2.07-4.1 4.62-4.78 2.55-.68 4.62.35 4.62 2.31s-2.07 4.1-4.62 4.78c-1.47.39-2.78.22-3.62-.37v21.23M374.09 49.11V24.59c-.01-.09-.01-.19-.01-.28 0-1.96 2.07-4.1 4.62-4.78 2.55-.68 4.62.35 4.62 2.31s-2.07 4.1-4.62 4.78c-1.47.39-2.78.22-3.62-.37v22.87M348.57 48.92h-.98V21.24c-.01-.09-.02-.19-.02-.28 0-1.96 2.07-4.1 4.62-4.78 2.55-.68 4.62.35 4.62 2.31s-2.07 4.1-4.62 4.78c-1.47.39-2.78.22-3.62-.37v22.87"></path>
    <!-- the bar in the notes in the 3rd beat of the upper staff, etc. -->
    <path class="st1" d="M388.56 51.61l-40.99-2.5v-3.16l40.99 2.5zM388.56 45.32l-14.2-.87v-3.17l14.2.88zM449.32 50.78V30.95c-.01-.09-.01-.19-.01-.28 0-1.96 2.07-4.1 4.62-4.78 2.55-.68 4.62.35 4.62 2.31s-2.07 4.1-4.62 4.78c-1.47.39-2.78.22-3.62-.37v18.18M435.87 49.11V27.6c-.01-.09-.01-.19-.01-.28 0-1.96 2.07-4.1 4.62-4.78 2.55-.68 4.62.35 4.62 2.31s-2.07 4.1-4.62 4.78c-1.47.39-2.78.22-3.62-.37v19.86M410.35 48.92h-.98V24.25c-.01-.09-.02-.19-.02-.28 0-1.96 2.07-4.1 4.62-4.78 2.55-.68 4.62.35 4.62 2.31s-2.07 4.1-4.62 4.78c-1.47.39-2.78.22-3.62-.37v19.86"></path>
    <!-- the bar in the notes in the 4th beat of the upper staff -->
    <path class="st1" d="M450.34 51.61l-40.99-2.5v-3.16l40.99 2.5zM450.34 45.32l-14.2-.87v-3.17l14.2.88zM243.66 125.56c1.46-.39 2.76-.22 3.6.37v-45.3h43.07V105.82c.01.09.02.18.02.28 0 1.95-2.06 4.08-4.6 4.76-2.54.68-4.6-.35-4.6-2.29 0-1.95 2.06-4.08 4.6-4.76 1.46-.39 2.76-.22 3.6.37v-14.4h-13.16v34.33c.01.09.01.18.01.28 0 1.95-2.06 4.08-4.6 4.76-2.54.68-4.6-.35-4.6-2.29 0-1.95 2.06-4.08 4.6-4.76 1.46-.39 2.76-.22 3.6.37V89.78h-13.16v16.04c.01.09.02.18.02.28 0 1.95-2.06 4.08-4.6 4.76-2.54.68-4.6-.35-4.6-2.29 0-1.95 2.06-4.08 4.6-4.76 1.46-.39 2.76-.22 3.6.37v-14.4h-12.83v37.8c.01.09.01.18.01.28 0 1.95-2.06 4.08-4.6 4.76-2.54.68-4.6-.35-4.6-2.29.03-1.96 2.08-4.09 4.62-4.77zm45.7-38.92v-2.87H276.2v2.87h13.16zm-14.15 0v-2.87h-13.16v2.87h13.16zm-14.14 0v-2.87h-12.83v2.87h12.83z"></path>
    <!-- ? -->
    <path class="st0" d="M250.48 129.84H237.9a.67.67 0 0 1 0-1.34h12.58a.67.67 0 0 1 0 1.34zM250.48 122.81H237.9a.67.67 0 0 1 0-1.34h12.58a.67.67 0 0 1 0 1.34zM277.67 122.81h-12.58a.67.67 0 0 1 0-1.34h12.58c.37 0 .67.3.67.67-.01.37-.3.67-.67.67z"></path>
    <!-- lower staff, beat 2 -->
    <path class="st1" d="M296.45 121.09c1.46-.39 2.76-.22 3.6.37V80.63h43.07V105.82c.01.09.02.18.02.28 0 1.95-2.06 4.08-4.6 4.76-2.54.68-4.6-.35-4.6-2.29 0-1.95 2.06-4.08 4.6-4.76 1.46-.39 2.76-.22 3.6.37v-14.4h-13.16v27.81c.01.09.01.18.01.28 0 1.95-2.06 4.08-4.6 4.76-2.54.68-4.6-.35-4.6-2.29 0-1.95 2.06-4.08 4.6-4.76 1.46-.39 2.76-.22 3.6.37V89.78h-13.16v16.04c.01.09.02.18.02.28 0 1.95-2.06 4.08-4.6 4.76-2.54.68-4.6-.35-4.6-2.29 0-1.95 2.06-4.08 4.6-4.76 1.46-.39 2.76-.22 3.6.37v-14.4h-12.83v33.32c.01.09.01.18.01.28 0 1.95-2.06 4.08-4.6 4.76-2.54.68-4.6-.35-4.6-2.29.02-1.95 2.08-4.08 4.62-4.76zm45.69-34.45v-2.87h-13.16v2.87h13.16zm-14.14 0v-2.87h-13.16v2.87H328zm-14.14 0v-2.87h-12.83v2.87h12.83z"></path>
    <!-- ? -->
    <path class="st0" d="M303.26 125.37h-12.58a.67.67 0 0 1 0-1.34h12.58a.67.67 0 0 1 0 1.34z"></path>
    <!-- lower staff, beat 3 -->
    <path class="st1" d="M350.88 112.51c1.46-.39 2.76-.22 3.6.37V80.63h43.07V105.82c.01.09.02.18.02.28 0 1.95-2.06 4.08-4.6 4.76-2.54.68-4.6-.35-4.6-2.29 0-1.95 2.06-4.08 4.6-4.76 1.46-.39 2.76-.22 3.6.37v-14.4h-13.16v33.17c.01.09.01.18.01.28 0 1.95-2.06 4.08-4.6 4.76-2.54.68-4.6-.35-4.6-2.29 0-1.95 2.06-4.08 4.6-4.76 1.46-.39 2.76-.22 3.6.37V89.78h-13.16v16.04c.01.09.02.18.02.28 0 1.95-2.06 4.08-4.6 4.76-2.54.68-4.6-.35-4.6-2.29 0-1.95 2.06-4.08 4.6-4.76 1.46-.39 2.76-.22 3.6.37v-14.4h-12.83v24.74c.01.09.01.18.01.28 0 1.95-2.06 4.08-4.6 4.76-2.54.68-4.6-.35-4.6-2.29.02-1.96 2.08-4.08 4.62-4.76zm45.69-25.87v-2.87h-13.16v2.87h13.16zm-14.14 0v-2.87h-13.16v2.87h13.16zm-14.14 0v-2.87h-12.83v2.87h12.83zM411.86 115.52c1.46-.39 2.76-.22 3.6.37V80.63h43.07V105.82c.01.09.02.18.02.28 0 1.95-2.06 4.08-4.6 4.76-2.54.68-4.6-.35-4.6-2.29 0-1.95 2.06-4.08 4.6-4.76 1.46-.39 2.76-.22 3.6.37v-14.4h-13.16v33.78c.01.09.01.18.01.28 0 1.95-2.06 4.08-4.6 4.76-2.54.68-4.6-.35-4.6-2.29 0-1.95 2.06-4.08 4.6-4.76 1.46-.39 2.76-.22 3.6.37V89.78h-13.16v16.04c.01.09.02.18.02.28 0 1.95-2.06 4.08-4.6 4.76-2.54.68-4.6-.35-4.6-2.29 0-1.95 2.06-4.08 4.6-4.76 1.46-.39 2.76-.22 3.6.37v-14.4h-12.83v27.75c.01.09.01.18.01.28 0 1.95-2.06 4.08-4.6 4.76-2.54.68-4.6-.35-4.6-2.29.03-1.95 2.08-4.08 4.62-4.76zm45.69-28.88v-2.87h-13.16v2.87h13.16zm-14.14 0v-2.87h-13.16v2.87h13.16zm-14.14 0v-2.87h-12.83v2.87h12.83z"></path>
    <!-- ?? -->
    <path class="st0" d="M384.88 125.54H372.3a.67.67 0 0 1 0-1.34h12.58a.67.67 0 0 1 0 1.34zM445.47 122.14h-12.58a.67.67 0 0 1 0-1.34h12.58a.67.67 0 0 1 0 1.34z"></path>
    <!-- G -->
    <path class="st2" d="M28.6 31.96c.36-1.31.98-2.5 1.84-3.59.9-1.14 2-2.05 3.28-2.72 1.28-.67 2.64-1 4.07-1 .81 0 1.58.09 2.33.27.75.18 1.43.37 2.04.59.61.24 1.14.44 1.58.62.44.18.75.27.93.27.08 0 .15-.02.22-.06.07-.04.13-.09.19-.15l.03-.03c.06-.04.12-.08.19-.13a.41.41 0 0 1 .25-.07c.14 0 .24.05.31.15.07.1.1.23.1.38 0 .2-.01.4-.01.62-.01.22-.01.42-.01.62 0 .22-.01.43-.01.63-.01.21-.01.42-.01.63a14.527 14.527 0 0 0 .05 1.32c.02.24.03.47.04.69.01.23.01.45.01.66-.02.1-.07.18-.16.25s-.18.1-.28.1c-.1 0-.17-.02-.21-.06a.38.38 0 0 1-.09-.18l-.06-.18c-.02-.06-.04-.13-.06-.21-.3-1.63-1.14-3-2.54-4.09-1.4-1.09-2.91-1.64-4.55-1.64-2.16 0-3.72.76-4.68 2.29-.95 1.52-1.52 3.2-1.7 5.03-.04.3-.06.59-.07.87-.01.29-.01.57-.01.84 0 .47.03.97.1 1.51.07.53.17 1.07.31 1.62.39 1.52 1.07 2.91 2.04 4.18.96 1.27 2.25 1.9 3.87 1.9.26 0 .55-.02.87-.07.32-.05.64-.12.96-.22.43-.12.85-.26 1.25-.43.4-.17.74-.36 1.02-.58.24-.18.41-.43.52-.75.11-.32.18-.65.22-.99.02-.22.03-.43.04-.65.01-.22.01-.41.01-.59 0-1.16-.18-1.96-.53-2.39-.35-.43-.75-.7-1.18-.8-.16-.04-.31-.06-.46-.07-.15-.01-.28-.02-.4-.04a2.86 2.86 0 0 1-.62-.1c-.16-.05-.24-.16-.24-.34 0-.12.05-.21.15-.27.1-.06.22-.1.35-.12h.06c.35 0 .7.01 1.05.03.34.02.68.03 1.02.03l1.02.06c.34.02.69.03 1.05.03.28 0 .56-.01.84-.03l.84-.06.84-.06c.29-.02.57-.03.84-.03h.06c.12.02.22.06.31.13a.3.3 0 0 1 .13.25c0 .1-.03.18-.1.24s-.15.11-.25.15c-.02.02-.04.03-.07.04-.03.01-.05.01-.07.01-.63.14-1.02.44-1.18.91-.16.47-.25.98-.27 1.53 0 .09-.01.13-.01.17v.17a14.527 14.527 0 0 0 .05 1.32c0 .24 0 .47.01.69.01.23.01.45.01.66 0 .26-.09.45-.28.58-.19.13-.4.24-.63.34-.31.12-.62.24-.91.35-.3.12-.58.24-.86.35-.24.1-.48.2-.72.31-.25.11-.49.21-.72.31-.75.31-1.52.58-2.32.78-.8.21-1.72.31-2.76.31-2.56 0-4.67-.88-6.33-2.63-1.66-1.75-2.49-3.9-2.49-6.43.01-1.37.19-2.72.55-4.03zM56.39 39.77V40.18c.02.91.16 1.74.43 2.49.27.76.95 1.18 2.05 1.25.16.02.3.06.41.12.12.06.19.18.21.35 0 .12-.03.21-.09.28-.06.07-.16.1-.3.1-.24 0-.47-.01-.71-.03-.24-.02-.46-.03-.68-.03-.24 0-.47-.01-.71-.03-.24-.02-.47-.03-.71-.03-.39 0-.79.01-1.18.03-.39.02-.78.05-1.15.09-.39.02-.79.04-1.18.07-.39.03-.79.04-1.18.04h-.2a.815.815 0 0 1-.25-.09c-.07-.04-.1-.1-.1-.18 0-.12.04-.22.12-.3.08-.08.19-.16.32-.24.08-.06.17-.11.27-.16s.2-.1.3-.16c.24-.16.46-.38.66-.66.21-.29.32-.72.34-1.31V29.41c0-1.02-.19-1.82-.58-2.41-.38-.58-1.11-.94-2.17-1.08a.953.953 0 0 1-.38-.13c-.12-.07-.18-.19-.18-.37 0-.1.02-.19.06-.27.04-.08.12-.12.24-.12.26 0 .51.01.77.03.26.02.51.03.77.03.24.02.48.04.74.06.26.02.51.03.77.03a28.122 28.122 0 0 0 3.18-.17c.53-.04 1.06-.07 1.59-.1s1.06-.04 1.59-.04c.18 0 .35 0 .52.01.17.01.34.03.52.04 1.44.12 2.75.56 3.96 1.33 1.2.77 1.83 1.98 1.89 3.63 0 .94-.17 1.7-.52 2.27-.34.57-.71 1.03-1.11 1.39-.41.33-.79.59-1.14.75-.34.17-.52.31-.52.43v.03c0 .06.17.4.52 1.03.34.63.73 1.31 1.17 2.04.35.65.69 1.25 1.02 1.81.32.56.53.91.61 1.05l.12.24a.8.8 0 0 0 .15.21c.28.49.61.94 1 1.34.39.4.89.6 1.48.6.08 0 .16 0 .24-.01.08-.01.16-.02.24-.04.08-.02.16-.03.24-.04.08-.01.16-.01.24-.01.06 0 .11.02.15.06.04.04.07.09.09.15.02 0 .03.01.03.01v.04c0 .2-.07.35-.21.47-.14.12-.29.22-.44.3-.04.02-.08.04-.13.06-.05.02-.09.04-.13.06-.37.2-.77.35-1.18.47-.41.12-.84.18-1.27.18-.91 0-1.73-.41-2.46-1.24-.74-.83-1.38-1.74-1.93-2.75-.32-.55-.59-1.08-.83-1.59s-.45-.96-.65-1.36c-.12-.24-.23-.45-.32-.63-.1-.19-.2-.35-.3-.49-.33-.55-.72-.91-1.17-1.08-.44-.17-1.13-.25-2.05-.25-.33 0-.56.05-.68.16s-.18.33-.18.66V39.77zm0-7.38c0 .75.07 1.24.22 1.49s.53.37 1.14.37h.53c1.22-.02 2.34-.17 3.35-.46 1.01-.29 1.52-1.23 1.52-2.85 0-1.44-.48-2.63-1.45-3.59-.96-.95-2.16-1.43-3.6-1.43-.71 0-1.17.15-1.39.46-.22.31-.32.78-.32 1.43v4.58zM76.16 31.5c0 .2 0 .39.01.59.01.2.02.4.04.62.02.26.1.46.25.6.15.15.35.22.61.22h.65c.33-.04.63-.06.9-.07.27-.01.51-.01.72-.01.35 0 .66-.02.91-.07.26-.05.5-.17.74-.37.16-.16.33-.38.52-.66.19-.29.39-.65.61-1.11 0-.02 0-.03.01-.04l.04-.04c.02-.04.05-.07.09-.1.04-.03.1-.05.18-.07.14 0 .24.03.31.07.07.05.1.15.1.31 0 .1-.01.2-.01.31-.01.11-.01.21-.01.31 0 .12-.01.23-.01.34-.01.11-.01.21-.01.31 0 .39.01.79.03 1.2l.06 1.2c.02.1.03.19.03.27v.24l.06.96.06.96c0 .1-.02.19-.06.27-.04.08-.11.12-.21.12h-.03c-.12 0-.21-.05-.27-.16-.06-.11-.11-.24-.15-.4-.04-.14-.08-.29-.12-.44-.04-.16-.1-.31-.18-.47-.16-.37-.43-.71-.81-1.02-.38-.3-1-.46-1.84-.46h-1.86c-.49 0-.82.09-.99.27-.17.18-.27.52-.31 1.03-.02.28-.03.55-.04.83-.01.28-.01.55-.01.83v2.31c0 .22.01.43.03.65.02.3.05.59.1.87s.11.55.19.78c.16.43.35.73.59.89s.57.24 1 .24c1.73 0 3.09-.2 4.09-.59.99-.39 1.75-.83 2.26-1.3.47-.43.8-.84.99-1.21.19-.37.34-.59.46-.65.02 0 .04-.01.06-.03h.03c.1 0 .18.04.24.13s.09.18.09.28c0 1.63-.48 2.84-1.43 3.63s-2.22 1.18-3.79 1.18c-.49 0-.98-.02-1.46-.06l-1.46-.12c-.49-.04-.98-.07-1.48-.1-.49-.03-.98-.04-1.48-.04-.67 0-1.33.01-1.99.03-.66.02-1.31.06-1.96.12-.14 0-.25-.01-.32-.04-.08-.03-.13-.11-.15-.25 0-.1.03-.18.1-.25a.46.46 0 0 1 .22-.13c.85-.31 1.35-.82 1.51-1.51.16-.69.24-1.43.24-2.21V28.7c0-.98-.16-1.67-.49-2.05-.32-.38-.67-.62-1.05-.72-.14-.06-.28-.1-.41-.12-.14-.02-.27-.04-.38-.06a2.1 2.1 0 0 1-.5-.1c-.14-.05-.22-.14-.24-.28 0-.1.02-.19.06-.27.04-.08.12-.13.24-.15.53 0 1.06.01 1.59.03.53.02 1.06.03 1.59.03l1.56.06c.53.02 1.06.03 1.59.03h1.47c.26 0 .51 0 .75-.01.25-.01.49-.01.72-.01l3.28-.06c.14 0 .28 0 .41-.01.14-.01.28-.01.41-.01.14 0 .28 0 .41-.01.14-.01.28-.01.41-.01.14 0 .24.04.31.12.07.08.11.2.13.35 0 .26.01.52.03.78l.06.78.06.78c.02.27.03.53.03.78 0 .06-.01.12-.01.18-.01.06-.01.13-.01.21-.04.14-.09.26-.15.37-.06.11-.16.18-.29.22-.14 0-.23-.05-.28-.15-.05-.1-.07-.2-.07-.3V29v-.07c-.04-1.08-.43-1.79-1.17-2.12-.74-.33-1.54-.52-2.41-.56-.12-.02-.24-.03-.35-.03h-.83c-.08.02-.16.03-.24.03h-.49c-.09 0-.17-.01-.25-.03h-.54c-.55 0-.95.09-1.21.28-.26.19-.4.62-.44 1.28v3.72zM104.23 41.72c.31.73.67 1.28 1.08 1.65.4.37 1 .64 1.79.8.12.02.19.07.22.16s.04.18.04.28c0 .1-.04.17-.12.22-.08.05-.17.07-.27.07-.73-.12-1.45-.2-2.17-.24-.72-.04-1.45-.06-2.2-.06h-.56c-.2 0-.39.01-.59.03-.35 0-.7.01-1.03.04-.34.03-.63.06-.89.1-.02 0-.05 0-.09.01-.04.01-.07.01-.09.01-.04.02-.07.03-.1.03h-.1a.49.49 0 0 1-.28-.09c-.09-.06-.13-.15-.13-.27v-.03c.02-.1.13-.2.32-.3.2-.1.41-.22.65-.35.24-.16.45-.35.65-.58.2-.23.3-.52.3-.87 0-.26-.03-.53-.1-.81-.07-.29-.16-.58-.28-.87-.08-.18-.16-.36-.24-.55-.08-.19-.16-.37-.24-.55-.1-.18-.19-.35-.27-.53-.08-.18-.16-.34-.24-.5-.1-.2-.22-.36-.35-.49a1.01 1.01 0 0 0-.53-.25c-.2-.04-.43-.06-.71-.07-.28-.01-.56-.01-.86-.01h-3.9c-.59.04-1.01.2-1.27.47-.26.28-.47.63-.65 1.06-.04.08-.08.17-.13.28-.05.11-.09.21-.13.31l-.12.3-.12.3a3.548 3.548 0 0 0-.36.91c-.02.08-.03.16-.04.25-.01.09-.01.17-.01.25 0 .73.27 1.25.8 1.58.53.32 1.11.53 1.74.6h.06c.02 0 .04.01.06.03.1.02.19.05.28.1.09.05.13.13.13.25v.03c-.02.12-.07.2-.16.25-.09.05-.18.08-.28.1h-.08c-.22 0-.43-.01-.65-.04-.22-.03-.43-.05-.65-.07-.24-.02-.46-.04-.68-.07-.22-.03-.43-.04-.65-.04a11.786 11.786 0 0 0-1.68.12l-.84.06c-.29.02-.58.03-.87.03-.1 0-.19-.01-.27-.04-.08-.03-.12-.1-.12-.22 0-.14.03-.25.09-.32.06-.08.16-.13.3-.15.55-.18.99-.5 1.31-.97.32-.47.61-.97.84-1.51.04-.12.09-.24.15-.37s.12-.26.18-.4c.02-.06.04-.13.07-.21.03-.08.06-.15.1-.21l3.93-9.09c.1-.26.21-.51.33-.75.12-.25.24-.49.35-.72l1.33-2.77c.04-.06.11-.21.21-.44.1-.24.21-.48.32-.74a.38.38 0 0 0 .09-.13c.02-.05.04-.09.06-.13.12-.26.24-.48.35-.66.12-.19.21-.28.27-.28.04 0 .09.02.15.07s.11.11.15.19l.12.18c.04.06.07.12.09.18.08.12.14.24.19.35.05.12.08.2.1.24l.35.77 6.55 15.09zm-7.88-10.45a3.16 3.16 0 0 0-.13-.31c-.07-.15-.14-.3-.22-.46-.04-.08-.07-.15-.1-.21s-.06-.12-.1-.18c-.08-.14-.15-.25-.22-.32-.07-.08-.13-.12-.19-.12a.23.23 0 0 0-.09.03.65.65 0 0 0-.18.21l-.18.3-.12.3c-.04.1-.07.17-.09.21l-.27.59-1.68 3.87c0 .02-.01.04-.03.06-.02.02-.03.04-.03.06-.06.1-.11.2-.15.3-.04.1-.06.21-.06.32 0 .16.06.27.19.34s.26.11.4.13h4.83c.03 0 .06-.01.1-.03.08 0 .15-.02.22-.07s.1-.11.1-.19c0-.06-.01-.11-.03-.16-.02-.05-.04-.1-.06-.16l-.04-.04c-.01-.01-.01-.02-.01-.04l-1.86-4.43zM118.6 39.33c0 1.22.17 2.26.52 3.14.34.87 1.23 1.36 2.67 1.46.16 0 .28.03.35.07.08.05.13.15.15.31 0 .1-.01.19-.04.27-.03.08-.11.13-.25.15-.35 0-.71 0-1.06-.01-.35-.01-.7-.03-1.03-.07l-1.06-.06c-.35-.02-.71-.03-1.06-.03-.43 0-.87.01-1.3.04-.43.03-.87.06-1.3.1-.45.02-.9.04-1.33.07-.43.03-.87.04-1.3.04-.14 0-.23-.04-.27-.13a.745.745 0 0 1-.06-.31c0-.12.05-.2.16-.25.11-.05.25-.09.43-.13.14-.04.29-.08.44-.12.16-.04.33-.09.5-.15.37-.16.72-.41 1.03-.77.31-.35.47-.93.47-1.74V27.96c0-.43-.08-.78-.24-1.05-.16-.27-.48-.4-.97-.4h-.71c-.24 0-.48.01-.74.03-.35 0-.71.02-1.06.06-.35.04-.71.11-1.06.21-.55.14-.96.38-1.22.74-.27.35-.46.73-.58 1.12-.06.16-.11.32-.15.5a7.9 7.9 0 0 1-.12.47c-.08.28-.16.51-.25.69-.09.19-.22.28-.4.28-.14 0-.24-.05-.31-.16a.663.663 0 0 1-.1-.37c0-.2.03-.52.09-.97.06-.45.13-.92.21-1.42.06-.39.11-.78.16-1.17.05-.38.08-.69.1-.93.02-.16.06-.29.12-.38.06-.1.18-.15.35-.15.18 0 .36 0 .55.01s.38.01.58.01c.2 0 .39.01.58.01.19.01.37.01.55.01.45 0 .9.01 1.34.01.44.01.89.01 1.34.01.45 0 .9 0 1.34.01.44.01.89.01 1.34.01 1.38 0 2.75-.01 4.12-.03 1.37-.02 2.74-.06 4.12-.12.16-.02.32-.03.49-.04.17-.01.33-.01.49-.01.26 0 .45.04.59.13.14.09.22.27.24.55.02.26.04.51.07.75.03.25.05.5.07.75l.12.99c.04.33.06.64.06.96 0 .12-.03.22-.09.31s-.17.13-.32.13c-.14 0-.24-.05-.3-.15-.06-.1-.1-.22-.12-.35-.02 0-.03 0-.03-.01v-.04c-.24-.98-.68-1.65-1.34-1.99-.66-.34-1.45-.52-2.38-.52h-.77c-.75 0-1.34.09-1.77.28-.43.19-.65.77-.65 1.76v10.84zM2.8 61.96c1.87-2.14 4.27-3.22 7.2-3.22.89 0 1.68.1 2.38.3.7.2 1.29.4 1.79.62.51.24.93.45 1.25.65.32.2.56.3.69.3.1 0 .19-.01.28-.04.09-.03.16-.08.22-.16.02-.02.03-.04.03-.06s.01-.04.03-.06c.06-.1.11-.19.16-.27.05-.08.12-.14.22-.18h.04c.01 0 .01-.01.01-.03h.06c.14 0 .24.06.3.18s.1.24.12.35c.02.08.03.15.03.22v1.25c0 .45.01.86.04 1.21s.07.68.13.97c.02.26.04.49.07.71.03.22.05.43.07.65V65.79c0 .1-.03.2-.07.3-.05.1-.14.16-.28.18-.12 0-.2-.03-.24-.1-.04-.07-.08-.15-.12-.25-.04-.24-.13-.5-.28-.8s-.32-.6-.52-.92c-.1-.18-.21-.35-.32-.52-.12-.17-.25-.33-.38-.49-.18-.26-.35-.48-.53-.68-.18-.2-.33-.36-.47-.5-.71-.69-1.5-1.24-2.36-1.67-.87-.42-1.8-.63-2.8-.63-1.79 0-3.17.66-4.15 1.99-.97 1.33-1.58 2.78-1.82 4.35-.06.3-.1.59-.12.87-.02.29-.03.57-.03.84v.31c0 .11.01.21.03.31.04 1.16.25 2.29.62 3.39s.93 2.1 1.68 2.98c.63.71 1.38 1.31 2.24 1.82.87.5 1.78.75 2.74.75 1.34 0 2.56-.34 3.66-1.02 1.1-.68 2.08-1.5 2.92-2.46l.04-.04.04-.04c.04-.04.08-.07.13-.1s.1-.04.16-.04.12.03.18.09.1.12.12.18v.06c0 .12-.04.26-.12.43-.08.17-.18.34-.3.52-.06.1-.12.19-.18.27l-.18.24c-.14.16-.27.3-.38.43-.12.13-.22.23-.3.31-.92.96-2 1.71-3.22 2.24-1.22.53-2.5.8-3.84.8-2.85 0-5.16-.92-6.91-2.75C.88 74.59 0 72.26 0 69.43c0-2.84.93-5.33 2.8-7.47zM26.5 73.47v1.62c0 .2.01.39.03.59.04.31.09.61.16.9.07.29.17.5.31.63.14.14.31.22.52.25.21.03.42.04.63.04 1.67 0 3.15-.24 4.43-.72 1.28-.48 2.42-1.43 3.42-2.85l.12-.12c.04-.04.09-.06.15-.06.08 0 .13.03.16.09s.05.13.07.21c0 .02 0 .04.01.06.01.02.01.04.01.06 0 1.2-.37 2.28-1.11 3.25-.74.96-1.76 1.45-3.05 1.45a42.161 42.161 0 0 1-3.18-.12c-.18-.02-.35-.03-.53-.04-.18-.01-.35-.01-.53-.01-.35-.04-.71-.06-1.06-.07-.35-.01-.71-.01-1.06-.01-.71 0-1.42.03-2.13.07-.71.05-1.42.11-2.12.19h-.08c-.1 0-.2-.01-.3-.03-.1-.02-.16-.1-.18-.24 0-.14.03-.24.1-.3s.16-.11.28-.15c.63-.18 1.05-.52 1.25-1.03.21-.51.32-1.05.34-1.62.02-.14.03-.27.03-.4V62.7c0-.69-.13-1.27-.4-1.74s-.77-.77-1.52-.89c-.06 0-.15 0-.28-.01-.13-.01-.25-.02-.37-.04-.2-.04-.37-.1-.53-.18-.16-.08-.24-.19-.24-.33 0-.1.02-.19.07-.28.05-.09.13-.14.25-.16a9.582 9.582 0 0 1 1.5.12c.26.02.51.04.75.07.25.03.5.04.75.04.39 0 .78-.01 1.17-.04.38-.03.76-.06 1.14-.1.39-.04.78-.07 1.17-.1.38-.03.77-.04 1.17-.04h.27c.1.02.2.05.3.1.1.05.16.13.18.25v.03c0 .16-.06.26-.18.31-.12.05-.24.08-.35.1h-.08c-.53.04-.89.25-1.08.62-.19.37-.3.78-.34 1.21-.02.16-.03.31-.03.44v11.39zM53.3 75.8c.31.73.67 1.28 1.08 1.65.4.37 1 .64 1.79.8.12.02.19.07.22.16s.04.18.04.28c0 .1-.04.17-.12.22-.08.05-.17.07-.27.07-.73-.12-1.45-.2-2.17-.24-.72-.04-1.45-.06-2.2-.06h-.56c-.2 0-.39.01-.59.03-.35 0-.7.01-1.03.04-.33.03-.63.06-.89.1-.02 0-.05 0-.09.01-.04.01-.07.01-.09.01-.04.02-.07.03-.1.03h-.1a.49.49 0 0 1-.28-.09c-.09-.06-.13-.15-.13-.27v-.03c.02-.1.13-.2.32-.3.2-.1.41-.22.65-.35.24-.16.45-.35.65-.58.2-.23.29-.52.29-.87 0-.26-.03-.53-.1-.81-.07-.29-.16-.58-.28-.87-.08-.18-.16-.36-.24-.55-.08-.19-.16-.37-.24-.55-.1-.18-.19-.35-.27-.53-.08-.18-.16-.34-.24-.5-.1-.2-.22-.36-.35-.49a1.01 1.01 0 0 0-.53-.25c-.2-.04-.43-.06-.71-.07-.28-.01-.56-.01-.86-.01H42c-.59.04-1.01.2-1.27.47-.26.28-.47.63-.65 1.06-.04.08-.08.17-.13.28-.05.11-.09.21-.13.31l-.12.3-.12.3a3.548 3.548 0 0 0-.36.91c-.02.08-.03.16-.04.25-.01.09-.01.17-.01.25 0 .73.27 1.25.8 1.58.53.32 1.11.53 1.74.6h.06c.02 0 .04.01.06.03.1.02.19.05.28.1s.13.13.13.25v.03c-.02.12-.07.2-.16.25-.09.05-.18.08-.28.1h-.08c-.22 0-.43-.01-.65-.04-.22-.03-.43-.05-.65-.07-.24-.02-.46-.04-.68-.07-.22-.03-.43-.04-.65-.04a11.786 11.786 0 0 0-1.68.12l-.84.06c-.29.02-.58.03-.87.03-.1 0-.19-.01-.27-.04-.08-.03-.12-.1-.12-.22 0-.14.03-.25.09-.32.06-.08.16-.13.3-.15.55-.18.99-.5 1.31-.97.32-.47.61-.97.84-1.51.04-.12.09-.24.15-.37s.12-.26.18-.4c.02-.06.04-.13.07-.21.03-.08.06-.15.1-.21l3.93-9.09c.1-.26.21-.51.32-.75.12-.25.24-.49.35-.72l1.33-2.77c.04-.06.11-.21.21-.44.1-.24.21-.48.32-.74a.38.38 0 0 0 .09-.13c.02-.05.04-.09.06-.13.12-.26.24-.48.35-.66.12-.19.21-.28.27-.28.04 0 .09.02.15.07s.11.11.15.19l.12.18c.04.06.07.12.09.18.08.12.14.24.19.35.05.12.08.2.1.24l.35.77L53.3 75.8zm-7.88-10.45a3.16 3.16 0 0 0-.13-.31c-.07-.15-.14-.3-.22-.46-.04-.08-.07-.15-.1-.21s-.06-.12-.1-.18c-.08-.14-.15-.25-.22-.32-.07-.08-.13-.12-.19-.12a.23.23 0 0 0-.09.03.65.65 0 0 0-.18.21l-.18.3-.12.3c-.04.1-.07.17-.09.21l-.27.59-1.68 3.87c0 .02-.01.04-.03.06-.02.02-.03.04-.03.06-.06.1-.11.2-.15.3-.04.1-.06.21-.06.32 0 .16.06.27.19.34s.26.11.4.13h4.82c.03 0 .06-.01.1-.03.08 0 .15-.02.22-.07s.1-.11.1-.19c0-.06-.01-.11-.03-.16-.02-.05-.04-.1-.06-.16l-.04-.04c-.01-.01-.01-.02-.01-.04l-1.85-4.43zM59.57 60.34c1.05-1.06 2.33-1.59 3.82-1.59.55 0 1.05.06 1.49.18.44.12.84.26 1.2.41.37.14.71.27 1 .4.3.13.57.19.83.19.1 0 .19-.02.28-.06.09-.04.17-.08.25-.12 0-.02 0-.03.01-.03s.01-.01.01-.03c.1-.04.19-.08.28-.13.09-.05.2-.07.34-.07s.23.04.27.13c.04.09.06.18.06.28v.42c0 .1-.01.2-.03.3 0 .35.02.7.06 1.03.04.33.09.67.15 1 .06.35.11.7.15 1.03.04.33.06.68.06 1.03v.12c-.02.12-.05.22-.09.3a.28.28 0 0 1-.21.15c-.12 0-.21-.04-.28-.13a.65.65 0 0 1-.13-.28c0-.02-.01-.04-.01-.06-.01-.02-.01-.04-.01-.06-.26-1.28-.93-2.42-2.02-3.44-1.09-1.01-2.31-1.52-3.64-1.52h-.17c-.77.04-1.47.34-2.11.9-.64.56-.96 1.24-.96 2.05 0 .87.35 1.54 1.05 2.02.7.48 1.54.93 2.52 1.34.24.1.48.2.72.31.25.11.5.21.75.31 1.26.55 2.42 1.26 3.47 2.14 1.05.88 1.58 2.2 1.58 3.97 0 1.65-.58 3.12-1.74 4.41-1.16 1.29-2.6 1.93-4.31 1.93-.16 0-.31-.01-.46-.01-.15-.01-.3-.03-.46-.07-.3-.04-.58-.09-.86-.16s-.55-.14-.83-.22c-.1-.04-.19-.07-.28-.1-.09-.03-.18-.05-.28-.07-.26-.08-.49-.14-.71-.19-.22-.05-.41-.09-.59-.13-.35-.08-.63-.19-.81-.32-.19-.14-.3-.39-.34-.77-.04-.35-.1-.7-.19-1.03-.09-.33-.18-.67-.28-1-.02-.04-.03-.08-.04-.12-.01-.04-.01-.07-.01-.09-.12-.37-.22-.75-.31-1.14-.09-.38-.13-.76-.13-1.14v-.07-.07c.02-.12.05-.23.09-.32.04-.1.13-.16.27-.18.12 0 .21.03.27.09.06.06.1.14.12.24.06.2.12.4.19.61.07.21.15.41.25.6.51 1.16 1.25 2.23 2.23 3.2.97.97 2.1 1.46 3.38 1.46.98 0 1.85-.37 2.61-1.12.76-.75 1.14-1.6 1.14-2.57 0-1.04-.4-1.84-1.21-2.39-.81-.55-1.74-1.06-2.8-1.53-.18-.08-.35-.16-.53-.24-.18-.08-.35-.16-.53-.24-1.26-.55-2.42-1.24-3.48-2.07-1.06-.83-1.59-2.1-1.59-3.81-.04-1.52.48-2.8 1.53-3.86zM74.57 60.34c1.05-1.06 2.33-1.59 3.82-1.59.55 0 1.05.06 1.49.18.44.12.84.26 1.2.41.37.14.71.27 1 .4.3.13.57.19.83.19.1 0 .19-.02.28-.06.09-.04.17-.08.25-.12 0-.02 0-.03.01-.03s.01-.01.01-.03c.1-.04.19-.08.28-.13.09-.05.2-.07.34-.07s.23.04.27.13c.04.09.06.18.06.28v.42c0 .1-.01.2-.03.3 0 .35.02.7.06 1.03.04.33.09.67.15 1 .06.35.11.7.15 1.03.04.33.06.68.06 1.03v.12c-.02.12-.05.22-.09.3a.28.28 0 0 1-.21.15c-.12 0-.21-.04-.28-.13a.65.65 0 0 1-.13-.28c0-.02-.01-.04-.01-.06-.01-.02-.01-.04-.01-.06-.26-1.28-.93-2.42-2.02-3.44-1.09-1.01-2.31-1.52-3.64-1.52h-.17c-.77.04-1.47.34-2.11.9-.64.56-.96 1.24-.96 2.05 0 .87.35 1.54 1.05 2.02.7.48 1.54.93 2.52 1.34.24.1.48.2.72.31.25.11.5.21.75.31 1.26.55 2.42 1.26 3.47 2.14 1.05.88 1.58 2.2 1.58 3.97 0 1.65-.58 3.12-1.74 4.41-1.16 1.29-2.6 1.93-4.31 1.93-.16 0-.31-.01-.46-.01-.15-.01-.3-.03-.46-.07-.3-.04-.58-.09-.86-.16s-.55-.14-.83-.22c-.1-.04-.19-.07-.28-.1-.09-.03-.18-.05-.28-.07-.26-.08-.49-.14-.71-.19-.22-.05-.41-.09-.59-.13-.35-.08-.63-.19-.81-.32-.19-.14-.3-.39-.34-.77-.04-.35-.1-.7-.19-1.03-.09-.33-.18-.67-.28-1-.02-.04-.03-.08-.04-.12-.01-.04-.01-.07-.01-.09-.12-.37-.22-.75-.31-1.14-.09-.38-.13-.76-.13-1.14v-.07-.07c.02-.12.05-.23.09-.32.04-.1.13-.16.27-.18.12 0 .21.03.27.09.06.06.1.14.12.24.06.2.12.4.19.61.07.21.15.41.25.6.51 1.16 1.25 2.23 2.23 3.2.97.97 2.1 1.46 3.38 1.46.98 0 1.85-.37 2.61-1.12.76-.75 1.14-1.6 1.14-2.57 0-1.04-.4-1.84-1.21-2.39-.81-.55-1.74-1.06-2.8-1.53-.18-.08-.35-.16-.53-.24-.18-.08-.35-.16-.53-.24-1.26-.55-2.42-1.24-3.48-2.07-1.06-.83-1.59-2.1-1.59-3.81-.05-1.52.47-2.8 1.53-3.86zM94.06 73.76c0 1.08.15 2.07.44 2.97.3.9 1.12 1.34 2.48 1.34.12 0 .23.02.32.06.1.04.16.13.18.27 0 .18-.06.3-.19.35-.13.06-.27.1-.43.12h-.17a20.018 20.018 0 0 1-2.16-.12c-.37-.02-.74-.04-1.11-.07a12.992 12.992 0 0 0-1.89-.01c-.27.02-.53.05-.78.09-.08 0-.16.01-.24.01-.08.01-.15.03-.21.04-.2 0-.39.01-.59.03l-.59.06c-.12 0-.22-.01-.31-.04s-.15-.1-.19-.22c0-.06.02-.12.06-.18.04-.06.1-.11.18-.15.1-.06.22-.13.37-.21.15-.08.3-.17.46-.27.26-.2.49-.47.71-.83.22-.35.32-.87.32-1.53 0-.18 0-.35.01-.52.01-.17.01-.34.01-.52v-.52-10.59-.19-.19a.582.582 0 0 1-.03-.19v-.19c0-.83-.17-1.4-.52-1.73-.34-.32-.71-.54-1.11-.63-.14-.04-.28-.07-.41-.1-.14-.03-.27-.05-.38-.07-.24-.04-.44-.09-.61-.15-.17-.06-.25-.18-.25-.35 0-.1.03-.19.09-.28.06-.09.15-.13.27-.13.08 0 .15.01.22.01.07.01.13.01.19.01.04.02.09.03.15.04.06.01.12.01.18.01.14.04.31.07.53.09.22.02.5.03.86.03.49 0 .98-.01 1.46-.04s.96-.06 1.43-.1c.49-.04.98-.07 1.46-.1s.96-.04 1.43-.04c.14 0 .24.03.3.07.06.05.1.14.12.28 0 .14-.03.24-.09.31s-.17.12-.33.16c-.75.12-1.21.34-1.37.68-.17.34-.26.86-.28 1.56v11.67zM102.35 61.96c1.87-2.14 4.27-3.22 7.2-3.22.89 0 1.68.1 2.38.3.7.2 1.29.4 1.79.62.51.24.93.45 1.25.65.32.2.56.3.69.3.1 0 .19-.01.28-.04.09-.03.16-.08.22-.16.02-.02.03-.04.03-.06s.01-.04.03-.06c.06-.1.11-.19.16-.27.05-.08.12-.14.22-.18h.04c.01 0 .01-.01.01-.03h.06c.14 0 .24.06.3.18s.1.24.12.35c.02.08.03.15.03.22v1.25c0 .45.01.86.04 1.21s.07.68.13.97c.02.26.04.49.07.71.03.22.05.43.07.65V65.79c0 .1-.03.2-.07.3-.05.1-.14.16-.28.18-.12 0-.2-.03-.24-.1-.04-.07-.08-.15-.12-.25-.04-.24-.13-.5-.28-.8-.15-.3-.32-.6-.52-.92-.1-.18-.21-.35-.32-.52-.12-.17-.25-.33-.38-.49-.18-.26-.35-.48-.53-.68-.18-.2-.33-.36-.47-.5-.71-.69-1.5-1.24-2.36-1.67-.87-.42-1.8-.63-2.8-.63-1.79 0-3.17.66-4.15 1.99-.97 1.33-1.58 2.78-1.81 4.35-.06.3-.1.59-.12.87-.02.29-.03.57-.03.84v.31c0 .11.01.21.03.31.04 1.16.25 2.29.62 3.39s.93 2.1 1.68 2.98c.63.71 1.38 1.31 2.24 1.82.87.5 1.78.75 2.75.75 1.34 0 2.56-.34 3.66-1.02 1.1-.68 2.08-1.5 2.92-2.46l.04-.04.04-.04c.04-.04.08-.07.13-.1s.1-.04.16-.04.12.03.18.09.1.12.12.18v.06c0 .12-.04.26-.12.43-.08.17-.18.34-.3.52-.06.1-.12.19-.18.27l-.18.24c-.14.16-.27.3-.38.43-.12.13-.22.23-.3.31-.92.96-2 1.71-3.22 2.24-1.22.53-2.5.8-3.84.8-2.85 0-5.15-.92-6.91-2.75-1.75-1.83-2.63-4.16-2.63-6.99.05-2.86.98-5.35 2.85-7.49zM136.38 75.8c.31.73.67 1.28 1.08 1.65.4.37 1 .64 1.79.8.12.02.19.07.22.16s.04.18.04.28c0 .1-.04.17-.12.22-.08.05-.17.07-.27.07-.73-.12-1.45-.2-2.17-.24-.72-.04-1.45-.06-2.2-.06h-.56c-.2 0-.39.01-.59.03-.35 0-.7.01-1.03.04s-.63.06-.89.1c-.02 0-.05 0-.09.01-.04.01-.07.01-.09.01-.04.02-.07.03-.1.03h-.1a.49.49 0 0 1-.28-.09c-.09-.06-.13-.15-.13-.27v-.03c.02-.1.13-.2.33-.3.2-.1.41-.22.65-.35.24-.16.45-.35.65-.58.2-.23.29-.52.29-.87 0-.26-.03-.53-.1-.81-.07-.29-.16-.58-.28-.87-.08-.18-.16-.36-.24-.55-.08-.19-.16-.37-.24-.55-.1-.18-.19-.35-.27-.53-.08-.18-.16-.34-.24-.5-.1-.2-.22-.36-.35-.49a1.01 1.01 0 0 0-.53-.25c-.2-.04-.43-.06-.71-.07-.28-.01-.56-.01-.86-.01h-3.9c-.59.04-1.01.2-1.27.47-.26.28-.47.63-.65 1.06-.04.08-.08.17-.13.28-.05.11-.09.21-.13.31l-.12.3-.12.3a3.548 3.548 0 0 0-.36.91c-.02.08-.03.16-.04.25-.01.09-.01.17-.01.25 0 .73.27 1.25.8 1.58.53.32 1.11.53 1.74.6h.06c.02 0 .04.01.06.03.1.02.19.05.28.1.09.05.13.13.13.25v.03c-.02.12-.07.2-.16.25-.09.05-.18.08-.28.1h-.08c-.22 0-.43-.01-.65-.04-.22-.03-.43-.05-.65-.07-.24-.02-.46-.04-.68-.07-.22-.03-.43-.04-.65-.04a11.786 11.786 0 0 0-1.68.12l-.84.06c-.29.02-.58.03-.87.03-.1 0-.19-.01-.27-.04-.08-.03-.12-.1-.12-.22 0-.14.03-.25.09-.32.06-.08.16-.13.3-.15.55-.18.99-.5 1.31-.97.32-.47.6-.97.84-1.51.04-.12.09-.24.15-.37s.12-.26.18-.4c.02-.06.04-.13.07-.21s.06-.15.1-.21l3.93-9.09c.1-.26.21-.51.32-.75.12-.25.24-.49.35-.72l1.33-2.77c.04-.06.11-.21.21-.44.1-.24.21-.48.32-.74a.38.38 0 0 0 .09-.13c.02-.05.04-.09.06-.13.12-.26.24-.48.35-.66.12-.19.21-.28.27-.28.04 0 .09.02.15.07s.11.11.15.19l.12.18c.04.06.07.12.09.18.08.12.14.24.19.35.05.12.08.2.1.24l.35.77 6.56 15.09zm-7.88-10.45a3.16 3.16 0 0 0-.13-.31c-.07-.15-.14-.3-.22-.46-.04-.08-.07-.15-.1-.21s-.06-.12-.1-.18c-.08-.14-.15-.25-.22-.32-.07-.08-.13-.12-.19-.12a.23.23 0 0 0-.09.03.65.65 0 0 0-.18.21l-.18.3-.12.3c-.04.1-.07.17-.09.21l-.27.59-1.68 3.87c0 .02-.01.04-.03.06-.02.02-.03.04-.03.06-.06.1-.11.2-.15.3-.04.1-.06.21-.06.32 0 .16.06.27.19.34s.26.11.4.13h4.83c.03 0 .06-.01.1-.03.08 0 .15-.02.22-.07s.1-.11.1-.19c0-.06-.01-.11-.03-.16-.02-.05-.04-.1-.06-.16l-.04-.04c-.01-.01-.01-.02-.01-.04l-1.86-4.43zM147.16 73.47v1.62c0 .2.01.39.03.59.04.31.09.61.16.9.07.29.17.5.31.63.14.14.31.22.52.25s.42.04.63.04c1.67 0 3.15-.24 4.43-.72 1.28-.48 2.42-1.43 3.42-2.85l.12-.12c.04-.04.09-.06.15-.06.08 0 .13.03.16.09s.05.13.07.21c0 .02 0 .04.01.06.01.02.01.04.01.06 0 1.2-.37 2.28-1.11 3.25-.74.96-1.76 1.45-3.05 1.45a42.161 42.161 0 0 1-3.18-.12c-.18-.02-.35-.03-.53-.04-.18-.01-.35-.01-.53-.01-.35-.04-.71-.06-1.06-.07-.35-.01-.71-.01-1.06-.01-.71 0-1.42.03-2.12.07-.71.05-1.42.11-2.12.19h-.08c-.1 0-.2-.01-.3-.03-.1-.02-.16-.1-.18-.24 0-.14.03-.24.1-.3s.16-.11.28-.15c.63-.18 1.05-.52 1.25-1.03.21-.51.32-1.05.34-1.62.02-.14.03-.27.03-.4V62.7c0-.69-.13-1.27-.4-1.74s-.77-.77-1.52-.89c-.06 0-.15 0-.28-.01-.13-.01-.25-.02-.37-.04-.2-.04-.37-.1-.53-.18-.16-.08-.24-.19-.24-.33 0-.1.02-.19.07-.28.05-.09.13-.14.25-.16a9.582 9.582 0 0 1 1.5.12c.26.02.51.04.75.07.25.03.5.04.75.04.39 0 .78-.01 1.17-.04.38-.03.76-.06 1.14-.1.39-.04.78-.07 1.17-.1.38-.03.77-.04 1.17-.04h.27c.1.02.2.05.3.1.1.05.16.13.18.25v.03c0 .16-.06.26-.18.31-.12.05-.24.08-.35.1h-.08c-.53.04-.89.25-1.08.62-.19.37-.3.78-.34 1.21-.02.16-.03.31-.03.44v11.39z"></path>
    <g>
        <!-- Something to do with "MUSIC" -->
        <path class="st2" d="M40.69 106.35c.02.04.04.09.07.16.03.07.06.13.1.19.04.12.1.23.18.32.08.1.17.15.27.15h.03c.1 0 .18-.04.25-.12.07-.08.12-.16.16-.24l.06-.12.06-.12L47.33 95c.14-.28.28-.56.41-.84.14-.29.28-.56.41-.81.1-.2.23-.37.38-.53.16-.16.35-.25.59-.27.16 0 .31.01.47.01.16.01.31.01.47.01.16 0 .31 0 .47.01.16.01.31.01.47.01.16 0 .31-.01.47-.03l.47-.06c.16 0 .31-.01.47-.03.16-.02.31-.03.47-.03.14 0 .26.03.35.09.1.06.15.17.15.33 0 .14-.03.23-.1.28-.07.05-.16.07-.28.07-.96.08-1.61.42-1.95 1.03-.33.61-.5 1.35-.5 2.21v.68c0 .12 0 .23.01.34.01.11.01.22.01.34l.32 8.97c.06 1.16.23 2.19.52 3.1.29.91 1.12 1.44 2.49 1.59.12.02.22.06.31.13s.13.17.13.31c0 .12-.06.2-.18.25-.12.05-.25.07-.38.07h-.36c-.3 0-.59-.01-.89-.03-.3-.02-.58-.05-.86-.09-.3-.02-.59-.04-.89-.07-.3-.03-.59-.04-.89-.04-.61 0-1.22.02-1.84.07-.62.05-1.23.11-1.84.19-.12 0-.22-.01-.31-.04s-.15-.1-.19-.22c0-.06.01-.11.04-.15.03-.04.07-.08.13-.12.1-.08.22-.15.35-.22.14-.07.29-.15.44-.25.24-.18.46-.41.66-.71s.31-.71.31-1.24v-.18-.18c0-.04-.01-.09-.01-.15-.01-.06-.01-.12-.01-.18l-.44-9.59v-.07-.07c-.02-.06-.04-.11-.06-.15-.02-.04-.06-.06-.12-.06h-.03c-.1.02-.18.07-.25.16s-.12.18-.16.28c-.04.08-.07.15-.09.21-.02.06-.04.11-.06.15l-5.43 11.48c-.02.08-.05.17-.09.27-.04.1-.09.21-.15.32-.08.18-.17.34-.27.49-.1.15-.21.22-.32.22-.1 0-.21-.05-.32-.16-.12-.11-.24-.26-.35-.46-.1-.14-.19-.29-.28-.46-.09-.17-.17-.33-.25-.49-.14-.31-.27-.61-.38-.87-.12-.27-.21-.47-.27-.6l-4.63-10.3c0-.02-.01-.03-.01-.04l-.04-.04a.523.523 0 0 0-.07-.15c-.03-.04-.06-.06-.1-.06h-.03c-.1.02-.16.07-.19.15-.03.08-.04.16-.04.24v.34c-.02.06-.03.11-.03.16v.13l-.14 7.35a12.13 12.13 0 0 0 .05 1.13c.06.75.25 1.45.58 2.11.32.66.91 1.09 1.76 1.28.04 0 .07.01.1.01.03.01.06.03.1.04.1.04.2.09.3.16.1.07.15.16.15.28v.03c-.02.14-.07.22-.16.25s-.19.04-.31.04a10.166 10.166 0 0 1-1.56-.12c-.26-.02-.51-.04-.77-.07-.26-.03-.52-.04-.8-.04h-.32l-.55.06-.55.06c-.22.04-.43.06-.65.07-.22.01-.41.01-.59.01-.14 0-.26-.02-.37-.06-.11-.04-.16-.14-.16-.3v-.03c0-.08.03-.14.09-.19.06-.05.12-.08.18-.1.02-.02.04-.03.06-.03.96-.33 1.55-.86 1.77-1.58.22-.72.34-1.52.38-2.41l.38-9.47.03-.86c0-.98-.25-1.87-.75-2.66s-1.29-1.18-2.38-1.18c-.14 0-.26-.02-.37-.07-.11-.05-.17-.15-.19-.31v-.03c0-.12.05-.21.15-.28.1-.07.21-.1.32-.1.18 0 .35.01.53.01.18.01.35.01.53.01a9.445 9.445 0 0 0 1.06.05c.18 0 .36-.01.55-.03l.58-.06c.04 0 .08 0 .13-.01s.1-.01.16-.01c.14-.02.28-.03.41-.04.14-.01.28-.02.41-.04.33 0 .63.07.89.22s.45.38.59.69l5.91 12.92zM73.86 108.4c.79-1.82 1.22-3.9 1.3-6.24.04-.45.06-.9.06-1.34v-1.34-1.11c0-.36-.01-.73-.03-1.11v-.12-.12c0-.16-.01-.32-.01-.49-.01-.17-.03-.34-.04-.52-.06-.71-.27-1.36-.62-1.95-.35-.59-1.1-.89-2.24-.89-.14 0-.27-.03-.38-.1a.334.334 0 0 1-.18-.31c0-.1.02-.18.06-.25.04-.07.11-.1.21-.1h.18c.06 0 .11.01.15.03.24.04.47.07.71.09l.71.06c.24.02.47.03.71.03h.71c.26 0 .51-.01.75-.04.25-.03.5-.05.75-.07a9.401 9.401 0 0 1 1.5-.12c.1 0 .18.03.25.07.07.05.11.12.13.22 0 .18-.06.3-.19.37s-.26.11-.4.13h-.18c-.02 0-.04.01-.07.01-.03.01-.05.01-.07.01-.43.08-.72.3-.87.66-.15.36-.23.76-.25 1.2V95.39c0 .16 0 .32.01.49.01.17.01.33.01.49 0 .18 0 .35.01.52.01.17.01.33.01.49 0 .51-.01 1.02-.03 1.52l-.06 1.49c-.02.18-.03.35-.04.52-.01.17-.01.33-.01.49-.02.43-.03.88-.04 1.34-.01.46-.03.93-.07 1.4-.1 1.08-.3 2.15-.61 3.2a7.18 7.18 0 0 1-1.58 2.82c-.75.83-1.64 1.42-2.67 1.79-1.03.36-2.09.59-3.17.66-.14.02-.28.03-.43.03h-.46c-3.13 0-5.32-.74-6.58-2.23-1.26-1.49-1.89-3.74-1.89-6.77v-.28c0-.09.01-.17.03-.25v-.28-.25l.15-4.19-.06-2.63c0-.92-.21-1.54-.63-1.86-.42-.31-1.07-.54-1.93-.68-.18-.04-.31-.09-.41-.15-.1-.06-.15-.18-.15-.35 0-.1.04-.17.12-.22.08-.05.16-.07.24-.07.31 0 .63.01.94.03l.97.06a15.386 15.386 0 0 0 2.91.09c.32-.02.65-.05.99-.09l.99-.06c.32-.02.65-.03.99-.03.16 0 .3.02.41.06.12.04.19.16.21.35 0 .16-.07.27-.22.34s-.33.13-.55.19c-.02 0-.04.01-.07.01-.03.01-.05.01-.07.01-.16.06-.31.11-.44.16-.14.05-.25.12-.32.22-.14.16-.24.34-.31.56-.07.22-.11.43-.13.65-.02.12-.03.23-.04.34-.01.11-.01.21-.01.31-.02.04-.03.08-.03.12v.12l-.21 3.28v5.08c.04.87.15 1.72.32 2.57.18.85.56 1.61 1.15 2.3.43.51.96.93 1.59 1.25.63.32 1.28.55 1.95.66a6.009 6.009 0 0 0 1.15.12c2.82 0 4.64-.91 5.42-2.73zM82.5 93.81c1.05-1.06 2.33-1.59 3.82-1.59.55 0 1.05.06 1.49.18.44.12.84.26 1.2.41.37.14.71.27 1 .4.3.13.57.19.83.19.1 0 .19-.02.28-.06.09-.04.17-.08.25-.12 0-.02 0-.03.01-.03s.01-.01.01-.03c.1-.04.19-.08.28-.13.09-.05.2-.07.34-.07s.23.04.27.13c.04.09.06.18.06.28v.42c0 .1-.01.2-.03.3 0 .35.02.7.06 1.03.04.33.09.67.15 1 .06.35.11.7.15 1.03.04.33.06.68.06 1.03v.12c-.02.12-.05.22-.09.3a.28.28 0 0 1-.21.15c-.12 0-.21-.04-.28-.13a.65.65 0 0 1-.13-.28c0-.02-.01-.04-.01-.06-.01-.02-.01-.04-.01-.06-.26-1.28-.93-2.42-2.02-3.44-1.09-1.01-2.31-1.52-3.64-1.52h-.17c-.77.04-1.47.34-2.11.9-.64.56-.96 1.24-.96 2.05 0 .87.35 1.54 1.05 2.02.7.48 1.54.93 2.52 1.34.24.1.48.2.72.31.25.11.5.21.75.31 1.26.55 2.42 1.26 3.47 2.14 1.05.88 1.58 2.2 1.58 3.97 0 1.65-.58 3.12-1.74 4.41-1.16 1.29-2.6 1.93-4.31 1.93-.16 0-.31-.01-.46-.01-.15-.01-.3-.03-.46-.07-.3-.04-.58-.09-.86-.16s-.55-.14-.83-.22c-.1-.04-.19-.07-.28-.1-.09-.03-.18-.05-.28-.07-.26-.08-.49-.14-.71-.19-.22-.05-.41-.09-.59-.13-.35-.08-.63-.19-.81-.32-.19-.14-.3-.39-.34-.77-.04-.35-.1-.7-.19-1.03-.09-.33-.18-.67-.28-1-.02-.04-.03-.08-.04-.12-.01-.04-.01-.07-.01-.09-.12-.37-.22-.75-.31-1.14-.09-.38-.13-.76-.13-1.14v-.07-.07c.02-.12.05-.23.09-.32.04-.1.13-.16.27-.18.12 0 .21.03.27.09.06.06.1.14.12.24.06.2.12.4.19.61.07.21.15.41.25.6.51 1.16 1.25 2.23 2.23 3.2.97.97 2.1 1.46 3.38 1.46.98 0 1.85-.37 2.61-1.12.76-.75 1.14-1.6 1.14-2.57 0-1.04-.4-1.84-1.21-2.39-.81-.55-1.74-1.06-2.8-1.53-.18-.08-.35-.16-.53-.24-.18-.08-.35-.16-.53-.24-1.26-.55-2.42-1.24-3.48-2.07-1.06-.83-1.59-2.1-1.59-3.81-.05-1.52.47-2.8 1.53-3.86zM101.99 107.24c0 1.08.15 2.07.44 2.97.3.9 1.12 1.34 2.48 1.34.12 0 .23.02.32.06.1.04.16.13.18.27 0 .18-.06.3-.19.35-.13.06-.27.1-.43.12h-.17a20.018 20.018 0 0 1-2.16-.12c-.37-.02-.74-.04-1.11-.07a12.992 12.992 0 0 0-1.89-.01c-.27.02-.53.05-.78.09-.08 0-.16.01-.24.01-.08.01-.15.03-.21.04-.2 0-.39.01-.59.03l-.59.06c-.12 0-.22-.01-.31-.04s-.15-.1-.19-.22c0-.06.02-.12.06-.18.04-.06.1-.11.18-.15.1-.06.22-.13.37-.21.15-.08.3-.17.46-.27.26-.2.49-.47.71-.83.22-.35.32-.87.32-1.53 0-.18 0-.35.01-.52.01-.17.01-.34.01-.52v-.52-10.6-.19-.19a.582.582 0 0 1-.03-.19v-.19c0-.83-.17-1.4-.52-1.73-.34-.32-.71-.54-1.11-.63-.14-.04-.28-.07-.41-.1-.14-.03-.27-.05-.38-.07-.24-.04-.44-.09-.61-.15-.17-.06-.25-.18-.25-.35 0-.1.03-.19.09-.28.06-.09.15-.13.27-.13.08 0 .15.01.22.01.07.01.13.01.19.01.04.02.09.03.15.04.06.01.12.01.18.01.14.04.31.07.53.09.22.02.5.03.86.03.49 0 .98-.01 1.46-.04s.96-.06 1.43-.1c.49-.04.98-.07 1.46-.1s.96-.04 1.43-.04c.14 0 .24.03.3.07.06.05.1.14.12.28 0 .14-.03.24-.09.31s-.17.12-.33.16c-.75.12-1.21.34-1.37.68-.17.34-.26.86-.28 1.56v11.68zM110.28 95.43c1.87-2.14 4.27-3.22 7.2-3.22.89 0 1.68.1 2.38.3.7.2 1.29.4 1.79.62.51.24.93.45 1.25.65.33.2.56.3.69.3.1 0 .19-.01.28-.04.09-.03.16-.08.22-.16.02-.02.03-.04.03-.06 0-.02.01-.04.03-.06.06-.1.11-.19.16-.27.05-.08.12-.14.22-.18h.04c.01 0 .01-.01.01-.03h.06c.14 0 .24.06.3.18s.1.24.12.35c.02.08.03.15.03.22v1.25c0 .45.01.86.04 1.21s.07.68.13.97c.02.26.04.49.07.71.03.22.05.43.07.65V99.26c0 .1-.03.2-.07.3-.05.1-.14.16-.28.18-.12 0-.2-.03-.24-.1s-.08-.15-.12-.25c-.04-.24-.13-.5-.28-.8-.15-.3-.32-.6-.52-.92-.1-.18-.21-.35-.32-.52-.12-.17-.25-.33-.38-.49-.18-.26-.35-.48-.53-.68-.18-.2-.34-.36-.47-.5-.71-.69-1.5-1.24-2.36-1.67-.87-.42-1.8-.63-2.8-.63-1.79 0-3.17.66-4.15 1.99-.97 1.33-1.58 2.78-1.82 4.35-.06.3-.1.59-.12.87-.02.29-.03.57-.03.84v.31c0 .11.01.21.03.31.04 1.16.25 2.29.62 3.39s.93 2.1 1.68 2.98c.63.71 1.38 1.31 2.24 1.82.87.5 1.78.75 2.74.75 1.34 0 2.56-.34 3.66-1.02 1.1-.68 2.08-1.5 2.92-2.46l.04-.04.04-.04c.04-.04.08-.07.13-.1s.1-.04.16-.04.12.03.18.09.1.12.12.18v.06c0 .12-.04.26-.12.43-.08.17-.18.34-.3.52-.06.1-.12.19-.18.27l-.18.24c-.14.16-.27.3-.38.43-.12.13-.22.23-.3.31-.92.96-2 1.71-3.22 2.24-1.22.53-2.5.8-3.84.8-2.85 0-5.16-.92-6.91-2.75s-2.63-4.16-2.63-6.99c.07-2.86 1-5.34 2.87-7.49z"></path>
    </g>
    <g>
        <!-- something part of "24" -->
        <path class="st2" d="M524.66 31.65c-.23.65-.52 1.31-.87 1.98-.37.67-.8 1.33-1.27 1.99-.47.66-.95 1.29-1.45 1.9-.43.55-.86 1.07-1.28 1.55-.42.48-.81.92-1.17 1.31l-.12.12c-.04.04-.08.09-.12.15-.04.06-.09.12-.15.19a.59.59 0 0 0-.12.19c-.04.06-.06.11-.07.16-.01.05-.01.09-.01.13 0 .18.07.31.21.38.14.08.29.13.44.15.06.02.12.03.18.03h.18c.22 0 .43 0 .65-.01.22-.01.43-.01.65-.01.2 0 .4 0 .62-.01.22-.01.43-.01.65-.01H522.02c.06.02.12.03.19.03h.44c.09 0 .17-.01.25-.03.65-.06 1.27-.25 1.86-.56.59-.31 1.03-.77 1.33-1.36.02-.02.03-.04.03-.06.02-.04.05-.07.09-.1.04-.03.08-.04.12-.04.12 0 .21.02.28.07.07.05.1.12.1.22 0 .22-.04.44-.13.66-.09.23-.18.45-.28.66-.06.1-.11.2-.16.31-.05.11-.09.21-.13.31-.14.29-.26.57-.37.82-.11.25-.21.49-.31.7-.2.43-.43.75-.69.95-.27.2-.7.31-1.31.31-.37 0-.75 0-1.14-.01-.38-.01-.76-.02-1.14-.04-.39 0-.78-.01-1.15-.03-.37-.02-.76-.03-1.15-.03-.31 0-.62.01-.93.03-.31.02-.62.03-.93.03-.31.02-.62.03-.93.04-.31.01-.62.01-.93.01h-.06c-.14 0-.26-.02-.35-.07-.1-.05-.15-.14-.15-.28v-.03c.02-.2.42-.75 1.2-1.65.78-.9 1.63-1.99 2.55-3.27.45-.59.9-1.21 1.33-1.87.43-.66.82-1.32 1.15-1.99.39-.73.71-1.46.94-2.19.24-.74.35-1.43.35-2.08 0-.98-.28-1.77-.84-2.36-.56-.59-1.33-.88-2.32-.88h-.2c-.63.04-1.24.22-1.83.55-.59.32-1.07.73-1.45 1.22l-.06.06-.06.06-.06.06h-.07a.09.09 0 0 1-.07-.03.445.445 0 0 1-.21-.12.288.288 0 0 1-.09-.21c0-.1.06-.24.18-.43s.27-.39.44-.61c.04-.04.08-.09.13-.15s.09-.11.13-.15c.18-.2.34-.37.49-.52.15-.15.26-.25.34-.31.57-.51 1.21-.9 1.92-1.18.71-.28 1.44-.41 2.18-.41 1.16 0 2.19.33 3.1 1 .9.67 1.36 1.62 1.36 2.86 0 .62-.12 1.25-.34 1.9zM539.02 44.84v.13c0 .05.01.1.03.16v.32c0 .22-.05.35-.15.41-.1.06-.28.09-.56.09-.18.04-.35.07-.53.1-.18.03-.34.05-.5.07l-.53.12-.53.12h-.06a.542.542 0 0 1-.18-.1c-.06-.05-.09-.1-.09-.16 0-.18.01-.35.03-.52l.06-.49.06-.47c.02-.16.03-.32.03-.5v-3.19l.03-.41c-.02-.18-.1-.3-.24-.37-.14-.07-.29-.11-.44-.13H529.01c-.14 0-.27-.03-.4-.09s-.2-.18-.22-.35c0-.33.07-.64.22-.93.15-.29.32-.57.52-.84.02-.06.04-.11.07-.16.03-.05.06-.09.1-.13.22-.33.74-1.08 1.56-2.24.83-1.16 1.73-2.41 2.72-3.75.08-.12.16-.23.24-.33a92.617 92.617 0 0 1 3.24-4.14c.93-1.13 1.52-1.7 1.76-1.7.1 0 .16.03.19.1s.04.15.04.25v1.94c-.02.33-.03.66-.03.99v7.78c0 .26.03.49.1.69.07.21.26.31.58.31.37 0 .7-.07.97-.21.28-.14.47-.39.59-.77 0-.02.01-.04.03-.06.02-.06.04-.1.07-.13.03-.03.07-.04.13-.04.12 0 .22.03.31.09s.13.16.13.3v.12c0 .02-.01.04-.01.06-.01.02-.01.04-.01.06-.02.12-.03.26-.04.41-.01.16-.03.31-.04.47v.51c-.04.33-.09.65-.16.96-.07.31-.22.54-.46.69-.1.08-.22.13-.35.15-.14.02-.29.03-.44.03h-.68c-.26 0-.44.04-.55.13-.11.09-.16.34-.16.75v3.9zm-2.93-9.37v-1.05c0-.33 0-.67-.01-1.02-.01-.34-.01-.68-.01-1.02.02-.18.03-.35.03-.53v-.53-.19-.22a.582.582 0 0 1-.03-.19v-.19-.04-.04c0-.04-.01-.07-.03-.1-.02-.03-.05-.04-.09-.04h-.03c-.06.02-.34.34-.86.94-.51.61-1.07 1.3-1.68 2.07-.08.1-.15.19-.22.28-.07.09-.14.18-.22.28-.55.75-1.04 1.45-1.48 2.1-.43.65-.65 1.09-.65 1.33.02.1.08.17.19.21.11.04.23.06.37.06h3.75c.28 0 .51-.03.71-.1.2-.07.3-.27.3-.61l-.03-.35c-.01-.36-.01-.7-.01-1.05zM484.25 69.01c-.69 0-1.11.11-1.27.34-.16.23-.24.66-.24 1.31v3.94c0 .11.01.22.03.34.06.79.28 1.51.65 2.17.37.66 1.04.99 2.01.99h.24c.1.02.19.05.28.1.09.05.13.13.13.25 0 .14-.05.24-.16.3s-.22.1-.34.12c-.04.02-.08.03-.12.03h-.12c-.35 0-.7-.01-1.05-.04s-.68-.05-1.02-.07c-.35-.04-.7-.07-1.05-.1-.34-.03-.69-.04-1.05-.04-.24 0-.47.01-.71.01-.24.01-.48.01-.74.01-.31.02-.64.05-.96.09-.32.04-.63.08-.93.12h-.08a.73.73 0 0 1-.35-.09c-.12-.06-.18-.18-.18-.35 0-.04.01-.07.04-.1l.1-.1c.1-.06.24-.13.41-.21.18-.08.35-.18.53-.3.27-.2.53-.48.75-.86.23-.37.34-.91.34-1.62v-.28c0-.09.01-.17.03-.25v-.28V62.7c0-1.02-.22-1.72-.66-2.08-.44-.36-1.13-.63-2.05-.81a.696.696 0 0 1-.3-.15c-.06-.06-.09-.16-.09-.3 0-.16.05-.27.15-.32.1-.06.22-.09.35-.09.14.02.28.03.43.04.15.01.29.02.43.04l.43.06c.15.02.29.03.43.03a11.967 11.967 0 0 0 1.71.12c.49 0 .99-.02 1.49-.06.5-.04 1-.09 1.49-.15.16-.02.32-.03.49-.04.17-.01.33-.02.49-.04h.2c.1.02.2.05.29.1.1.05.15.14.15.28 0 .12-.04.21-.13.27-.09.06-.18.1-.28.12-.63.12-1.07.35-1.33.71-.26.35-.38.84-.38 1.45v4.25c0 .57.08.95.24 1.15.16.2.61.3 1.36.3H491.36c.16-.02.31-.06.44-.12.14-.06.25-.16.32-.3.1-.18.16-.37.18-.58.02-.21.03-.41.03-.61V62.7c0-.73-.14-1.33-.43-1.81s-.82-.8-1.61-.96c-.02 0-.05 0-.09-.01-.04-.01-.08-.01-.12-.01h-.1c-.05 0-.09-.01-.13-.03a1.2 1.2 0 0 1-.43-.13c-.13-.07-.19-.19-.19-.37 0-.16.05-.27.15-.32.1-.06.22-.09.35-.09.14.02.28.03.43.04.15.01.29.02.43.04.43.06.87.11 1.3.15.43.04.87.06 1.3.06a16.361 16.361 0 0 0 1.98-.12c.16 0 .32-.01.49-.03l.49-.06c.16-.02.32-.03.49-.04.17-.01.33-.02.49-.04h.24c.1.02.19.05.28.1.09.05.13.13.13.25 0 .14-.04.24-.12.3-.08.06-.18.1-.29.12-.63.12-1.07.35-1.33.71-.26.35-.38.84-.38 1.45v12.74c0 .11.01.22.03.34.06.79.28 1.51.65 2.17.37.66 1.04.99 2.01.99h.2c.1.02.2.05.3.1.1.05.15.14.15.28s-.05.24-.16.3-.22.09-.34.09c-.04.02-.08.03-.12.03h-.12c-.35 0-.7-.01-1.05-.04s-.68-.05-1.02-.07c-.35-.04-.7-.07-1.05-.1-.34-.03-.69-.04-1.05-.04-.26 0-.53.01-.81.01-.29.01-.57.03-.84.04a23.21 23.21 0 0 0-1.66.17h-.12c-.14-.02-.26-.06-.37-.12-.11-.06-.16-.17-.16-.32 0-.06.02-.11.06-.15.04-.04.1-.08.18-.12a3.688 3.688 0 0 0 .89-.44c.26-.2.49-.5.71-.91.22-.41.34-1.03.38-1.86v-4.58c0-.49-.06-.84-.19-1.05-.13-.21-.39-.31-.78-.31h-7.13zM504.06 61.78c1.95-2.03 4.47-3.04 7.56-3.04 2.91 0 5.36.81 7.33 2.43 1.98 1.62 2.97 3.97 2.97 7.04 0 3.11-.95 5.71-2.85 7.81-1.9 2.1-4.45 3.14-7.66 3.14-2.95 0-5.4-.87-7.35-2.61-1.95-1.74-2.92-4.13-2.92-7.16-.01-3.04.97-5.58 2.92-7.61zm.67 7.69c.04.44.11.89.21 1.34.35 1.83 1.09 3.51 2.21 5.03 1.12 1.52 2.71 2.29 4.75 2.29 2.3 0 3.96-.83 4.97-2.49 1.01-1.66 1.57-3.49 1.67-5.48v-.34-.31c0-.14-.01-.28-.01-.43-.01-.15-.01-.29-.01-.43-.16-2.22-.9-4.25-2.21-6.09-1.32-1.84-3.21-2.76-5.67-2.76h-.24c-.71.04-1.39.21-2.05.52-.66.31-1.22.71-1.7 1.22-.59.63-1.03 1.35-1.31 2.15-.29.81-.48 1.63-.58 2.48l-.06 1c-.02.34-.03.67-.03 1 .01.43.02.86.06 1.3zM541.69 74.93c.79-1.82 1.22-3.9 1.3-6.24.04-.45.06-.9.06-1.34v-1.34-1.11c0-.36-.01-.73-.03-1.11v-.12-.12c0-.16-.01-.32-.01-.49-.01-.17-.03-.34-.04-.52-.06-.71-.27-1.36-.62-1.95-.35-.59-1.1-.89-2.24-.89-.14 0-.27-.03-.38-.1a.334.334 0 0 1-.18-.31c0-.1.02-.18.06-.25.04-.07.11-.1.21-.1h.18c.06 0 .11.01.15.03.24.04.47.07.71.09l.71.06c.24.02.47.03.71.03h.71c.26 0 .51-.01.75-.04.25-.03.5-.05.75-.07a9.401 9.401 0 0 1 1.5-.12c.1 0 .18.03.25.07.07.05.11.12.13.22 0 .18-.06.3-.19.37s-.26.11-.4.13h-.18c-.02 0-.04.01-.07.01-.03.01-.05.01-.07.01-.43.08-.72.3-.87.66-.15.36-.23.76-.25 1.2V61.92c0 .16 0 .32.01.49.01.17.01.33.01.49 0 .18 0 .35.01.52.01.17.01.33.01.49 0 .51-.01 1.02-.03 1.52l-.06 1.49c-.02.18-.03.35-.04.52-.01.17-.01.33-.01.49-.02.43-.03.88-.04 1.34-.01.46-.03.93-.07 1.4-.1 1.08-.3 2.15-.61 3.2a7.18 7.18 0 0 1-1.58 2.82c-.75.83-1.64 1.42-2.67 1.79-1.03.36-2.09.59-3.17.66-.14.02-.28.03-.43.03h-.46c-3.13 0-5.32-.74-6.58-2.23-1.26-1.49-1.89-3.74-1.89-6.77v-.28c0-.09.01-.17.03-.25v-.28-.25l.15-4.19-.06-2.63c0-.92-.21-1.54-.64-1.86s-1.07-.54-1.93-.68c-.18-.04-.31-.09-.41-.15-.1-.06-.15-.18-.15-.35 0-.1.04-.17.12-.22.08-.05.16-.07.24-.07.31 0 .63.01.94.03l.97.06a15.386 15.386 0 0 0 2.91.09c.33-.02.65-.05.99-.09l.99-.06c.33-.02.65-.03.99-.03.16 0 .29.02.41.06.12.04.19.16.21.35 0 .16-.07.27-.22.34s-.33.13-.55.19c-.02 0-.04.01-.07.01-.03.01-.05.01-.07.01-.16.06-.31.11-.44.16-.14.05-.25.12-.32.22-.14.16-.24.34-.31.56-.07.22-.11.43-.13.65-.02.12-.04.23-.04.34-.01.11-.01.21-.01.31-.02.04-.03.08-.03.12v.12l-.21 3.28v5.08c.04.87.15 1.72.33 2.57.18.85.56 1.61 1.15 2.3.43.51.96.93 1.59 1.25.63.32 1.28.55 1.95.66a6.009 6.009 0 0 0 1.15.12c2.81 0 4.63-.91 5.42-2.73zM554.82 73.85V74.26c.02.91.16 1.74.43 2.49s.95 1.18 2.05 1.25c.16.02.3.06.41.12.12.06.19.18.21.35 0 .12-.03.21-.09.28s-.16.1-.3.1c-.24 0-.47-.01-.71-.03-.24-.02-.46-.03-.68-.03-.24 0-.47-.01-.71-.03-.24-.02-.47-.03-.71-.03-.39 0-.79.01-1.18.03-.39.02-.78.05-1.15.09-.39.02-.79.04-1.18.07-.39.03-.79.04-1.18.04h-.2a.815.815 0 0 1-.25-.09c-.07-.04-.1-.1-.1-.18 0-.12.04-.22.12-.3.08-.08.19-.16.33-.24.08-.06.17-.11.27-.16s.2-.1.3-.16c.24-.16.46-.38.66-.66.21-.29.32-.72.34-1.31V63.49c0-1.02-.19-1.82-.58-2.41-.38-.58-1.11-.94-2.17-1.08a.953.953 0 0 1-.38-.13c-.12-.07-.18-.19-.18-.37 0-.1.02-.19.06-.27.04-.08.12-.12.24-.12.26 0 .51.01.77.03.26.02.51.03.77.03.24.02.48.04.74.06s.51.03.77.03a28.122 28.122 0 0 0 3.18-.17c.53-.04 1.06-.07 1.59-.1s1.06-.04 1.59-.04c.18 0 .35 0 .52.01.17.01.34.03.52.04 1.44.12 2.75.56 3.96 1.33 1.2.77 1.83 1.98 1.89 3.63 0 .94-.17 1.7-.52 2.27-.34.57-.71 1.03-1.11 1.39-.41.33-.79.59-1.14.75-.34.17-.52.31-.52.43v.03c0 .06.17.4.52 1.03.34.63.73 1.31 1.17 2.04.35.65.69 1.25 1.02 1.81.32.56.53.91.61 1.05l.12.24a.8.8 0 0 0 .15.21c.28.49.61.94 1 1.34.39.4.88.6 1.48.6.08 0 .16 0 .24-.01.08-.01.16-.02.24-.04.08-.02.16-.03.24-.04.08-.01.16-.01.24-.01.06 0 .11.02.15.06s.07.09.09.15c.02 0 .03.01.03.01v.04c0 .2-.07.35-.21.47-.14.12-.29.22-.44.3-.04.02-.08.04-.13.06-.05.02-.09.04-.13.06-.37.2-.77.35-1.18.47-.41.12-.84.18-1.27.18-.91 0-1.73-.41-2.46-1.24-.74-.83-1.38-1.74-1.93-2.75-.32-.55-.59-1.08-.83-1.59s-.45-.96-.65-1.36c-.12-.24-.23-.45-.32-.63-.1-.19-.2-.35-.3-.49-.33-.55-.72-.91-1.17-1.08-.44-.17-1.13-.25-2.05-.25-.34 0-.56.05-.68.16s-.18.33-.18.66V73.85zm0-7.38c0 .75.07 1.24.22 1.49s.53.37 1.14.37h.53c1.22-.02 2.34-.17 3.35-.46 1.01-.29 1.52-1.23 1.52-2.85 0-1.44-.48-2.63-1.45-3.59-.96-.95-2.16-1.43-3.6-1.43-.71 0-1.17.15-1.39.46-.22.31-.32.78-.32 1.43v4.58zM570.3 60.34c1.05-1.06 2.33-1.59 3.82-1.59.55 0 1.05.06 1.49.18.44.12.84.26 1.2.41.37.14.71.27 1 .4.3.13.57.19.83.19.1 0 .19-.02.28-.06.09-.04.17-.08.25-.12 0-.02 0-.03.01-.03s.01-.01.01-.03c.1-.04.19-.08.28-.13.09-.05.2-.07.34-.07s.23.04.27.13c.04.09.06.18.06.28v.42c0 .1-.01.2-.03.3 0 .35.02.7.06 1.03.04.33.09.67.15 1 .06.35.11.7.15 1.03.04.33.06.68.06 1.03v.12c-.02.12-.05.22-.09.3s-.11.13-.21.15c-.12 0-.21-.04-.28-.13a.65.65 0 0 1-.13-.28c0-.02 0-.04-.01-.06-.01-.02-.01-.04-.01-.06-.26-1.28-.93-2.42-2.02-3.44-1.09-1.01-2.31-1.52-3.65-1.52h-.17c-.77.04-1.47.34-2.11.9-.64.56-.96 1.24-.96 2.05 0 .87.35 1.54 1.05 2.02.7.48 1.54.93 2.52 1.34.24.1.48.2.72.31.25.11.5.21.75.31 1.26.55 2.41 1.26 3.47 2.14 1.05.88 1.58 2.2 1.58 3.97 0 1.65-.58 3.12-1.74 4.41-1.16 1.29-2.6 1.93-4.31 1.93-.16 0-.31-.01-.46-.01-.15-.01-.3-.03-.46-.07-.3-.04-.58-.09-.86-.16s-.55-.14-.83-.22c-.1-.04-.19-.07-.28-.1-.09-.03-.18-.05-.28-.07-.26-.08-.49-.14-.71-.19-.22-.05-.41-.09-.59-.13-.35-.08-.62-.19-.81-.32-.19-.14-.3-.39-.34-.77-.04-.35-.1-.7-.19-1.03-.09-.33-.18-.67-.28-1-.02-.04-.03-.08-.04-.12-.01-.04-.01-.07-.01-.09-.12-.37-.22-.75-.31-1.14-.09-.38-.13-.76-.13-1.14v-.07-.07c.02-.12.05-.23.09-.32.04-.1.13-.16.27-.18.12 0 .21.03.27.09.06.06.1.14.12.24.06.2.12.4.19.61.07.21.15.41.25.6.51 1.16 1.25 2.23 2.23 3.2.97.97 2.1 1.46 3.38 1.46.98 0 1.85-.37 2.61-1.12.76-.75 1.14-1.6 1.14-2.57 0-1.04-.4-1.84-1.21-2.39-.81-.55-1.74-1.06-2.8-1.53-.18-.08-.35-.16-.53-.24-.18-.08-.35-.16-.53-.24-1.26-.55-2.42-1.24-3.48-2.07-1.06-.83-1.59-2.1-1.59-3.81-.04-1.52.49-2.8 1.54-3.86z">
        </path>
        <g>
            <!-- "A" in "24 Hours a Day" -->
            <path class="st2" d="M500.56 109.27c.31.73.67 1.28 1.08 1.65.4.37 1 .64 1.79.8.12.02.19.07.22.16s.04.18.04.28c0 .1-.04.17-.12.22-.08.05-.17.07-.27.07-.73-.12-1.45-.2-2.17-.24-.72-.04-1.45-.06-2.2-.06h-.56c-.2 0-.39.01-.59.03-.35 0-.7.01-1.03.04s-.63.06-.89.1c-.02 0-.05 0-.09.01-.04.01-.07.01-.09.01-.04.02-.07.03-.1.03h-.1a.49.49 0 0 1-.28-.09c-.09-.06-.13-.15-.13-.27v-.03c.02-.1.13-.2.33-.3.2-.1.41-.22.65-.35.24-.16.45-.35.65-.58.2-.23.29-.52.29-.87 0-.26-.03-.53-.1-.81-.07-.29-.16-.58-.28-.87-.08-.18-.16-.36-.24-.55-.08-.19-.16-.37-.24-.55-.1-.18-.19-.35-.27-.53-.08-.18-.16-.34-.24-.5-.1-.2-.22-.36-.35-.49a1.01 1.01 0 0 0-.53-.25c-.2-.04-.43-.06-.71-.07-.28-.01-.56-.01-.86-.01h-3.9c-.59.04-1.01.2-1.27.47-.26.28-.47.63-.65 1.06-.04.08-.08.17-.13.28s-.09.21-.13.31l-.12.3-.12.3a3.548 3.548 0 0 0-.36.91c-.02.08-.03.16-.04.25-.01.09-.01.17-.01.25 0 .73.27 1.25.8 1.58.53.32 1.11.53 1.74.6h.06c.02 0 .04.01.06.03.1.02.19.05.28.1s.13.13.13.25v.03c-.02.12-.07.2-.16.25-.09.05-.18.08-.28.1h-.08c-.22 0-.43-.01-.65-.04-.22-.03-.43-.05-.65-.07-.24-.02-.46-.04-.68-.07-.22-.03-.43-.04-.65-.04a11.786 11.786 0 0 0-1.68.12l-.84.06c-.29.02-.58.03-.87.03-.1 0-.19-.01-.27-.04-.08-.03-.12-.1-.12-.22 0-.14.03-.25.09-.32.06-.08.16-.13.3-.15.55-.18.99-.5 1.31-.97.32-.47.6-.97.84-1.51.04-.12.09-.24.15-.37s.12-.26.18-.4c.02-.06.04-.13.07-.21.03-.08.06-.15.1-.21l3.93-9.09c.1-.26.21-.51.32-.75.12-.25.24-.49.35-.72l1.33-2.77c.04-.06.11-.21.21-.44.1-.24.21-.48.32-.74.04-.04.07-.08.09-.13s.04-.09.06-.13c.12-.26.24-.48.35-.66.12-.19.21-.28.27-.28.04 0 .09.02.15.07s.11.11.15.19l.12.18c.04.06.07.12.09.18.08.12.14.24.19.35.05.12.08.2.1.24l.35.77 6.56 15.09zm-7.88-10.45a3.16 3.16 0 0 0-.13-.31c-.07-.15-.14-.3-.22-.46-.04-.08-.07-.15-.1-.21s-.06-.12-.1-.18c-.08-.14-.15-.25-.22-.32-.07-.08-.13-.12-.19-.12a.23.23 0 0 0-.09.03.65.65 0 0 0-.18.21l-.18.3-.12.3c-.04.1-.07.17-.09.21l-.27.59-1.68 3.87c0 .02-.01.04-.03.06-.02.02-.03.04-.03.06-.06.1-.11.2-.15.3-.04.1-.06.21-.06.32 0 .16.06.27.19.34s.26.11.4.13h4.83c.03 0 .06-.01.1-.03.08 0 .15-.02.22-.07s.1-.11.1-.19c0-.06-.01-.11-.03-.16-.02-.05-.04-.1-.06-.16l-.04-.04c-.01-.01-.01-.02-.01-.04l-1.86-4.43zM516.23 96.4c0-.92-.26-1.63-.77-2.13-.51-.49-1.23-.74-2.15-.74-.14 0-.25-.03-.33-.09-.08-.06-.12-.16-.12-.3 0-.14.05-.24.16-.31s.22-.1.34-.1c.04-.02.08-.03.12-.03h.12c.22 0 .42 0 .62.01s.4.01.62.01c.2 0 .4.01.61.01a19.552 19.552 0 0 0 2.31-.06c.57-.05 1.14-.1 1.71-.16.55-.04 1.11-.08 1.68-.13.57-.05 1.14-.07 1.71-.07 2.87 0 5.46.72 7.76 2.15 2.3 1.44 3.45 3.77 3.45 6.99 0 3.03-1.03 5.59-3.08 7.67-2.06 2.09-4.61 3.13-7.66 3.13-.41 0-.83 0-1.25-.01-.42-.01-.84-.02-1.25-.04-.41 0-.83-.01-1.25-.03-.42-.02-.84-.03-1.25-.03a14.211 14.211 0 0 0-1.86.12l-.88.06c-.3.02-.59.03-.89.03-.14 0-.23-.03-.28-.1a.465.465 0 0 1-.07-.28c0-.1.03-.17.1-.22.07-.05.15-.09.25-.13.08-.02.17-.05.28-.09.11-.04.21-.09.31-.15.24-.12.45-.35.65-.71.2-.35.3-.93.3-1.74V96.4zm3.34 11.31c0 1.42.28 2.36.84 2.83.56.47 1.52.71 2.88.71 2.52 0 4.36-.89 5.53-2.66s1.76-3.79 1.76-6.05c0-2.64-.81-4.82-2.42-6.55-1.61-1.73-3.76-2.6-6.43-2.6-.85 0-1.42.12-1.71.37-.3.25-.44.67-.44 1.28v12.67zM553.25 109.27c.31.73.67 1.28 1.08 1.65.4.37 1 .64 1.79.8.12.02.19.07.22.16s.04.18.04.28c0 .1-.04.17-.12.22-.08.05-.17.07-.27.07-.73-.12-1.45-.2-2.17-.24-.72-.04-1.45-.06-2.2-.06h-.56c-.2 0-.39.01-.59.03-.35 0-.7.01-1.03.04-.34.03-.63.06-.89.1-.02 0-.05 0-.09.01-.04.01-.07.01-.09.01-.04.02-.07.03-.1.03h-.1a.49.49 0 0 1-.28-.09c-.09-.06-.13-.15-.13-.27v-.03c.02-.1.13-.2.32-.3.2-.1.41-.22.65-.35.24-.16.45-.35.65-.58.2-.23.3-.52.3-.87 0-.26-.03-.53-.1-.81-.07-.29-.16-.58-.28-.87-.08-.18-.16-.36-.24-.55-.08-.19-.16-.37-.24-.55-.1-.18-.19-.35-.27-.53-.08-.18-.16-.34-.24-.5-.1-.2-.22-.36-.35-.49a1.01 1.01 0 0 0-.53-.25c-.2-.04-.43-.06-.71-.07-.28-.01-.56-.01-.86-.01h-3.9c-.59.04-1.01.2-1.27.47-.26.28-.47.63-.65 1.06-.04.08-.08.17-.13.28-.05.11-.09.21-.13.31l-.12.3-.12.3a3.548 3.548 0 0 0-.36.91c-.02.08-.03.16-.04.25-.01.09-.01.17-.01.25 0 .73.27 1.25.8 1.58.53.32 1.11.53 1.74.6h.06c.02 0 .04.01.06.03.1.02.19.05.28.1.09.05.13.13.13.25v.03c-.02.12-.07.2-.16.25-.09.05-.18.08-.28.1h-.08c-.22 0-.43-.01-.65-.04-.22-.03-.43-.05-.65-.07-.24-.02-.46-.04-.68-.07-.22-.03-.43-.04-.65-.04a11.786 11.786 0 0 0-1.68.12l-.84.06c-.29.02-.58.03-.87.03-.1 0-.19-.01-.27-.04-.08-.03-.12-.1-.12-.22 0-.14.03-.25.09-.32.06-.08.16-.13.3-.15.55-.18.99-.5 1.31-.97.32-.47.61-.97.84-1.51.04-.12.09-.24.15-.37s.12-.26.18-.4c.02-.06.04-.13.07-.21.03-.08.06-.15.1-.21l3.93-9.09c.1-.26.21-.51.33-.75.12-.25.24-.49.35-.72l1.33-2.77c.04-.06.11-.21.21-.44.1-.24.21-.48.32-.74a.38.38 0 0 0 .09-.13c.02-.05.04-.09.06-.13.12-.26.24-.48.35-.66.12-.19.21-.28.27-.28.04 0 .09.02.15.07s.11.11.15.19l.12.18c.04.06.07.12.09.18.08.12.14.24.19.35.05.12.08.2.1.24l.35.77 6.55 15.09zm-7.89-10.45a3.16 3.16 0 0 0-.13-.31c-.07-.15-.14-.3-.22-.46-.04-.08-.07-.15-.1-.21s-.06-.12-.1-.18c-.08-.14-.15-.25-.22-.32-.07-.08-.13-.12-.19-.12a.23.23 0 0 0-.09.03.65.65 0 0 0-.18.21l-.18.3-.12.3c-.04.1-.07.17-.09.21l-.27.59-1.68 3.87c0 .02-.01.04-.03.06-.02.02-.03.04-.03.06-.06.1-.11.2-.15.3-.04.1-.06.21-.06.32 0 .16.06.27.19.34s.26.11.4.13h4.83c.03 0 .06-.01.1-.03.08 0 .15-.02.22-.07s.1-.11.1-.19c0-.06-.01-.11-.03-.16-.02-.05-.04-.1-.06-.16l-.04-.04c-.01-.01-.01-.02-.01-.04l-1.86-4.43zM566.88 108.27c0 1.12.21 1.94.62 2.45.41.51 1.19.8 2.33.86.12 0 .22.02.31.06.09.04.14.12.16.24 0 .24-.08.38-.24.43-.16.05-.34.07-.56.07-.35 0-.71-.01-1.08-.04-.36-.03-.72-.05-1.08-.07-.12-.02-.24-.03-.37-.04-.13-.01-.25-.01-.37-.01-.24-.04-.48-.06-.72-.07-.25-.01-.49-.01-.72-.01-.37 0-.74.01-1.11.01-.36.01-.72.03-1.08.07l-1.11.06c-.36.02-.73.05-1.11.09-.14 0-.23-.03-.28-.07-.05-.05-.08-.14-.1-.28 0-.12.03-.21.09-.28.06-.07.16-.11.3-.13 1.22-.22 1.99-.62 2.3-1.21.31-.59.47-1.44.47-2.54 0-1.36-.02-2.32-.06-2.88-.04-.56-.16-1.05-.35-1.46-.16-.35-.38-.76-.68-1.21-.3-.45-.7-1.17-1.21-2.15L559.05 96c-.02-.04-.04-.07-.06-.1-.02-.03-.03-.05-.03-.07-.33-.57-.74-1.1-1.21-1.59s-1.05-.78-1.74-.86h-.09c-.18-.04-.3-.08-.35-.13-.06-.05-.09-.15-.09-.31 0-.14.04-.24.13-.31s.21-.1.37-.1a12.822 12.822 0 0 1 1.71.12c.28.02.56.04.84.07.29.03.58.04.87.04.35 0 .7-.01 1.05-.03l1.02-.06 1.02-.06c.34-.02.68-.03 1.02-.03h.07c.03 0 .05.01.07.03.1.02.18.05.25.1s.1.12.1.22c0 .08-.03.15-.09.21s-.13.1-.21.12c-.04.02-.08.03-.12.04-.04.01-.07.01-.09.01-.04 0-.08.01-.12.03-.04.02-.08.03-.12.03-.22.08-.42.19-.6.32-.19.14-.28.33-.28.59 0 .3.08.65.25 1.08.17.42.36.86.58 1.31.06.12.12.24.19.35.07.12.13.25.19.38.2.33.38.65.55.94.17.3.31.55.43.77.06.12.14.3.24.53.1.24.21.49.32.77.14.24.28.47.41.69.14.23.29.41.44.55.06.04.12.07.18.1s.12.04.18.04c.2 0 .37-.1.53-.31.16-.21.31-.44.44-.69l.12-.24.12-.24.52-.89c.21-.35.42-.73.63-1.12.06-.1.12-.2.18-.31.06-.11.12-.21.18-.31.3-.51.55-1.01.75-1.51.21-.49.31-.88.31-1.18 0-.39-.16-.73-.49-1-.33-.27-.67-.47-1.05-.59-.14-.04-.28-.07-.41-.1-.14-.03-.27-.05-.38-.07h-.06a.794.794 0 0 1-.27-.1c-.08-.05-.12-.13-.12-.25s.03-.22.09-.31.15-.13.27-.13a8.142 8.142 0 0 1 1.38.12c.24.02.47.04.69.07.23.03.46.04.69.04h.9c.3 0 .61-.01.9-.03.3 0 .59-.01.9-.03l.9-.06h.14c.12 0 .22.03.3.07.08.05.12.13.12.25s-.04.2-.13.25c-.09.05-.18.09-.28.13-.02 0-.04.01-.06.01-.02.01-.04.01-.06.01-.87.2-1.53.61-1.99 1.24-.46.63-.87 1.3-1.22 2.01-.04.08-.07.15-.1.22s-.06.13-.1.19c-.53 1-1.07 2-1.62 3-.55.99-1.13 1.97-1.74 2.94-.08.14-.15.26-.21.37-.06.11-.11.22-.15.34-.04.14-.06.29-.07.44-.01.16-.01.33-.01.53v3.72z"></path>
        </g>
    </g>
    <g>
        <!-- inside "o" in Station in URL -->
        <path class="st2" d="M367.03 164.21a8.625 8.625 0 0 0-1.37-3.11c-.66-.93-1.59-1.4-2.79-1.4-.87 0-1.52.33-1.96.97-.44.65-.73 1.36-.87 2.13a7.249 7.249 0 0 0-.12 1.27c0 .35.03.75.09 1.18.06.43.15.87.27 1.3.28 1.04.74 2 1.4 2.88.66.88 1.52 1.31 2.58 1.31.94 0 1.66-.35 2.15-1.05.49-.7.79-1.46.89-2.29 0-.12 0-.23.01-.34.01-.11.01-.22.01-.34 0-.37-.03-.78-.07-1.21-.05-.44-.12-.87-.22-1.3zM332.82 165.06h-.17c-.79.04-1.52.34-2.2.89-.68.55-1.04 1.25-1.08 2.1v.24c.04.41.18.8.43 1.15.25.35.6.53 1.08.53.92 0 1.54-.22 1.86-.65.31-.43.47-1.07.47-1.92v-.49c0-.17.01-.33.03-.49v-.49-.49c-.02-.14-.05-.24-.1-.3-.06-.05-.16-.08-.32-.08zM287.37 165.06h-.17c-.79.04-1.52.34-2.2.89-.68.55-1.04 1.25-1.08 2.1v.24c.04.41.18.8.43 1.15.25.35.61.53 1.08.53.92 0 1.54-.22 1.86-.65.31-.43.47-1.07.47-1.92v-.49c0-.17.01-.33.03-.49v-.49-.49c-.02-.14-.05-.24-.1-.3-.06-.05-.16-.08-.32-.08zM188.21 163.44h.77c.14 0 .27 0 .4-.01s.25-.01.37-.01H190.85c.41-.02.8-.08 1.15-.18.35-.1.53-.31.53-.65v-.16c0-.05-.01-.09-.03-.13-.06-.67-.34-1.28-.83-1.83-.49-.55-1.09-.83-1.8-.83-.61 0-1.12.24-1.52.72-.4.48-.67 1.01-.81 1.58a3.89 3.89 0 0 0-.12.91c0 .28.08.44.24.5.14.06.33.09.55.09zM231.68 165.06h-.17c-.79.04-1.52.34-2.2.89-.68.55-1.04 1.25-1.08 2.1v.24c.04.41.18.8.43 1.15.25.35.6.53 1.08.53.92 0 1.54-.22 1.86-.65.31-.43.47-1.07.47-1.92v-.49c0-.17.01-.33.03-.49v-.49-.49c-.02-.14-.05-.24-.1-.3-.06-.05-.16-.08-.32-.08zM406.25 164.21a8.625 8.625 0 0 0-1.37-3.11c-.66-.93-1.59-1.4-2.79-1.4-.87 0-1.52.33-1.96.97-.44.65-.73 1.36-.87 2.13a7.249 7.249 0 0 0-.12 1.27c0 .35.03.75.09 1.18.06.43.15.87.27 1.3.28 1.04.74 2 1.4 2.88.66.88 1.52 1.31 2.58 1.31.94 0 1.66-.35 2.15-1.05.49-.7.79-1.46.89-2.29 0-.12 0-.23.01-.34.01-.11.01-.22.01-.34 0-.37-.03-.78-.07-1.21-.05-.44-.12-.87-.22-1.3z">

    </path>
        <!-- URL at bottom -->
    <path class="st2" d="M.29 141.14v40.13h580.57v-40.13H.29zm349.49 12.61c.05-.09.1-.18.16-.28.04-.04.07-.08.1-.12.03-.04.06-.09.1-.15.08-.08.15-.16.22-.24.07-.08.12-.14.16-.18l.68-.83.06-.06c.06-.06.11-.11.16-.15.05-.04.11-.06.19-.06h.1c.03 0 .05.01.07.03.1.04.2.11.3.21l.3.3.18.24c.06.08.11.15.15.21.22.26.38.44.49.55.11.11.18.2.22.28.04.06.07.11.09.16.02.05.04.12.06.22 0 .22-.06.41-.18.58-.12.17-.25.33-.38.49-.04.04-.07.08-.1.12-.03.04-.06.08-.1.12-.06.06-.11.13-.16.21-.05.08-.11.16-.19.24-.1.16-.21.3-.34.41-.13.12-.27.18-.43.18h-.12c-.06-.02-.11-.04-.16-.06a.38.38 0 0 1-.13-.09c-.06-.08-.16-.2-.31-.35-.15-.16-.29-.33-.43-.53a.349.349 0 0 1-.09-.06.349.349 0 0 1-.06-.09c-.18-.22-.33-.42-.47-.62-.14-.2-.21-.33-.21-.41-.01-.1.02-.19.07-.27zm-88.01 0c.05-.09.1-.18.16-.28.04-.04.07-.08.1-.12s.06-.09.1-.15c.08-.08.15-.16.22-.24.07-.08.12-.14.16-.18l.68-.83.06-.06c.06-.06.11-.11.16-.15.05-.04.11-.06.19-.06h.1c.03 0 .05.01.07.03.1.04.2.11.3.21l.3.3.18.24c.06.08.11.15.15.21.22.26.38.44.49.55.11.11.18.2.22.28.04.06.07.11.09.16.02.05.04.12.06.22 0 .22-.06.41-.18.58-.12.17-.25.33-.38.49-.04.04-.07.08-.1.12-.03.04-.06.08-.1.12-.06.06-.11.13-.16.21-.05.08-.11.16-.19.24-.1.16-.21.3-.34.41-.13.12-.27.18-.43.18h-.12c-.06-.02-.11-.04-.16-.06a.38.38 0 0 1-.13-.09c-.06-.08-.16-.2-.31-.35-.15-.16-.29-.33-.43-.53a.349.349 0 0 1-.09-.06.349.349 0 0 1-.06-.09c-.18-.22-.33-.42-.47-.62-.14-.2-.21-.33-.21-.41-.01-.1.02-.19.07-.27zm-94.52 2.06c-.06.09-.17.13-.32.13-.14 0-.24-.05-.3-.15-.06-.1-.1-.22-.12-.35-.02 0-.03 0-.03-.01v-.04c-.24-.98-.68-1.65-1.34-1.99-.66-.34-1.45-.52-2.38-.52H162c-.75 0-1.34.09-1.77.28-.43.19-.65.77-.65 1.76v10.81c0 1.22.17 2.26.52 3.14.34.87 1.23 1.36 2.67 1.46.16 0 .28.03.35.07.08.05.13.15.15.31 0 .1-.01.19-.04.27-.03.08-.11.13-.25.15-.35 0-.71 0-1.06-.01-.35-.01-.7-.03-1.03-.07l-1.06-.06c-.35-.02-.71-.03-1.06-.03-.43 0-.87.01-1.3.04-.43.03-.87.06-1.3.1-.45.02-.9.04-1.33.07s-.87.04-1.3.04c-.14 0-.23-.04-.27-.13a.745.745 0 0 1-.06-.31c0-.12.05-.2.16-.25.11-.05.25-.09.43-.13.14-.04.29-.08.44-.12.16-.04.33-.09.5-.15.37-.16.72-.41 1.03-.77.31-.35.47-.93.47-1.74V154.35c0-.43-.08-.78-.24-1.05s-.48-.4-.97-.4h-.71c-.24 0-.48.01-.74.03-.35 0-.71.02-1.06.06-.35.04-.71.11-1.06.21-.55.14-.96.38-1.22.74-.27.35-.46.73-.58 1.12-.06.16-.11.32-.15.5a7.9 7.9 0 0 1-.12.47c-.08.28-.16.51-.25.69-.09.19-.22.28-.4.28-.14 0-.24-.05-.31-.16a.663.663 0 0 1-.1-.37c0-.2.03-.52.09-.97.06-.45.13-.92.21-1.42.06-.39.11-.78.16-1.17.05-.38.08-.69.1-.93.02-.16.06-.29.12-.38.06-.1.18-.15.35-.15.18 0 .36 0 .55.01s.38.01.58.01c.2 0 .39.01.58.01.19.01.37.01.55.01.45 0 .9.01 1.34.01.44.01.89.01 1.34.01.45 0 .9 0 1.34.01.44.01.89.01 1.34.01 1.38 0 2.75-.01 4.12-.03 1.37-.02 2.74-.06 4.12-.12.16-.02.32-.03.49-.04.17-.01.33-.01.49-.01.26 0 .45.04.59.13.14.09.22.27.24.55.02.26.04.51.07.75.03.25.05.5.07.75l.12.99c.04.33.06.64.06.96-.01.16-.04.26-.1.35zm15.91 15.25a.37.37 0 0 1-.21.06h-.12c-.2 0-.4 0-.61-.01-.21-.01-.41-.02-.6-.04-.22 0-.42-.01-.62-.03-.2-.02-.4-.03-.62-.03-.28 0-.56.01-.84.03l-.84.06c-.3.02-.59.03-.87.04-.29.01-.57.01-.84.01-.1 0-.18-.02-.25-.06-.07-.04-.1-.12-.1-.24a.38.38 0 0 1 .09-.18c.04-.04.1-.08.18-.12.06-.04.12-.08.19-.12.07-.04.14-.09.22-.15.18-.14.33-.35.47-.65s.21-.76.21-1.39v-2.98c0-.2 0-.4-.01-.62-.01-.22-.03-.43-.04-.65-.1-.87-.36-1.65-.78-2.36-.42-.71-1.15-1.06-2.17-1.06-.59 0-1.08.14-1.48.41-.39.28-.73.67-1 1.18v5.43c0 .92.13 1.58.38 1.98.26.39.84.71 1.74.94.08.02.15.05.21.1s.09.12.09.22c-.02.14-.07.22-.15.25-.08.03-.17.04-.27.04-.2 0-.41-.01-.63-.03s-.45-.05-.66-.09c-.22-.04-.44-.07-.66-.1-.23-.03-.46-.04-.69-.04-.26 0-.51.01-.75.04-.25.03-.5.05-.75.07a9.401 9.401 0 0 1-1.5.12c-.14 0-.27-.01-.4-.04s-.21-.09-.25-.19c-.02-.02-.03-.04-.03-.06v-.06c0-.08.03-.14.09-.19.06-.05.13-.08.21-.1.43-.16.72-.42.87-.78.15-.36.23-.75.25-1.17.02-.12.03-.24.03-.37V154.74c0-.69-.08-1.22-.25-1.59-.17-.37-.63-.6-1.37-.68a.512.512 0 0 1-.21-.1c-.06-.05-.09-.12-.09-.22 0-.16.07-.28.22-.35.15-.08.31-.14.49-.18.12-.02.23-.03.34-.04.11-.01.19-.02.25-.04.1-.02.19-.04.28-.06.09-.02.17-.05.25-.09.35-.1.71-.22 1.06-.37.35-.15.69-.32 1-.52.04-.02.08-.04.12-.07s.09-.05.15-.07a.56.56 0 0 1 .15-.1c.06-.03.12-.05.18-.07.04-.04.09-.06.15-.07.06-.01.11-.01.15-.01.1 0 .16.03.19.09s.04.13.04.21v.12c-.04.24-.07.48-.1.74s-.04.5-.04.74c-.02.26-.03.51-.04.77-.01.26-.01.5-.01.74V160.99c0 .02.01.04.03.07.02.03.04.04.06.04.45-.45.86-.82 1.21-1.09.35-.26.76-.5 1.21-.72s.91-.34 1.39-.34c1.87 0 3.08.62 3.64 1.86.56 1.24.84 2.63.84 4.16v2.75c.02.67.13 1.29.34 1.87.21.58.72.9 1.55.96h.12c.08.02.16.05.24.09.08.04.12.12.12.24-.06.07-.09.14-.15.18zm12.31-2.39c-.06.1-.13.21-.21.33-.06.08-.13.15-.21.22-.08.07-.16.14-.24.22-.12.1-.23.19-.32.28-.1.09-.19.16-.27.22-.55.49-1.17.87-1.84 1.14s-1.39.4-2.14.4c-1.73 0-3.1-.59-4.12-1.76-1.01-1.17-1.52-2.58-1.52-4.24v-.29c0-.1.01-.2.03-.3.12-1.46.66-2.8 1.62-4.03.96-1.23 2.22-1.88 3.78-1.96.14 0 .28.01.41.01.14.01.28.03.41.04 1.16.2 2.22.72 3.17 1.56.95.85 1.43 1.88 1.43 3.1 0 .22-.06.36-.19.43s-.28.1-.46.1c-.55 0-1.1.01-1.65.01-.55.01-1.1.01-1.65.01-.57.02-1.13.03-1.68.04-.55.01-1.1.01-1.65.01-.16 0-.31.02-.44.06-.14.04-.22.17-.24.38 0 .12 0 .23.01.34.01.11.02.21.02.31.14 1.08.57 2.08 1.28 2.98.72.91 1.68 1.36 2.88 1.36.14 0 .28 0 .43-.01.15-.01.29-.03.43-.07.37-.08.73-.2 1.08-.35.34-.16.64-.35.9-.59.02-.02.05-.05.09-.1.04-.05.08-.1.12-.16.08-.08.16-.15.24-.21.08-.06.16-.09.24-.09.1 0 .18.02.25.07s.1.12.1.22c-.01.12-.04.22-.09.32zm19.71-2.42c0 .12-.04.26-.12.43-.08.17-.18.34-.3.52-.06.1-.12.19-.18.27l-.18.24c-.14.16-.27.3-.38.43-.12.13-.22.23-.3.31-.92.96-2 1.71-3.22 2.24-1.22.53-2.5.8-3.84.8-2.85 0-5.16-.92-6.91-2.75s-2.63-4.16-2.63-6.99.93-5.32 2.8-7.47c1.87-2.14 4.27-3.22 7.2-3.22.89 0 1.68.1 2.38.3.7.2 1.29.4 1.79.62.51.24.93.45 1.25.65.32.2.56.3.69.3.1 0 .19-.01.28-.04.09-.03.16-.08.22-.16.02-.02.03-.04.03-.06 0-.02.01-.04.03-.06.06-.1.11-.19.16-.27.05-.08.12-.14.22-.18h.04c.01 0 .01-.01.01-.03h.06c.14 0 .24.06.3.18s.1.24.12.35c.02.08.03.15.03.22v1.25c0 .45.01.86.04 1.21s.07.68.13.97c.02.26.04.49.07.71.03.22.05.43.07.65V158.11c0 .1-.03.2-.07.3-.05.1-.14.16-.28.18-.12 0-.2-.03-.24-.1-.04-.07-.08-.15-.12-.25-.04-.24-.13-.5-.28-.8-.15-.3-.32-.6-.52-.92-.1-.18-.21-.35-.32-.52-.12-.17-.25-.33-.38-.49-.18-.26-.35-.48-.53-.68-.18-.2-.34-.36-.47-.5-.71-.69-1.5-1.24-2.36-1.67-.87-.42-1.8-.63-2.8-.63-1.79 0-3.17.66-4.15 1.99-.97 1.33-1.58 2.78-1.82 4.35-.06.3-.1.59-.12.87-.02.29-.03.57-.03.84v.31c0 .11.01.21.03.31.04 1.16.25 2.29.62 3.39s.93 2.1 1.68 2.98c.63.71 1.38 1.31 2.24 1.82.87.5 1.78.75 2.74.75 1.34 0 2.56-.34 3.66-1.02 1.1-.68 2.08-1.5 2.92-2.46l.04-.04.04-.04c.04-.04.08-.07.13-.1s.1-.04.16-.04.12.03.18.09.1.12.12.18c.07 0 .07.02.07.04zm8.47 4.51v.06c-.02.08-.04.15-.07.21-.03.06-.09.09-.19.09-.3 0-.59-.01-.89-.03l-.89-.06-.91-.06c-.3-.02-.59-.03-.89-.03h-.28c-.09 0-.18.01-.28.03-.16 0-.31 0-.46.01-.15.01-.3.03-.46.04-.24.02-.46.04-.66.06-.21.02-.4.03-.58.03h-.03c-.08 0-.15-.03-.21-.1a.328.328 0 0 1-.09-.22c0-.06.07-.15.22-.27.15-.12.32-.27.52-.44.16-.18.31-.39.46-.65.15-.26.23-.56.25-.91v-.3c0-.1.01-.21.03-.32v-.3-12.64-.18-.21c-.02-.51-.12-.99-.3-1.43-.18-.44-.56-.67-1.15-.69a.657.657 0 0 1-.28-.1c-.07-.05-.11-.14-.13-.28v-.03c0-.14.06-.24.18-.3s.26-.1.41-.12c.06-.02.12-.03.19-.04.07-.01.13-.02.19-.04h.06a35.657 35.657 0 0 1 1.01-.24c.33-.1.66-.21.99-.34.32-.13.63-.28.93-.46.04-.02.08-.04.12-.07.04-.03.08-.06.12-.1.04-.02.07-.04.1-.06.03-.02.06-.04.1-.06.04-.02.09-.04.15-.06.06-.02.11-.03.15-.03.1 0 .16.03.19.09s.04.13.04.21c0 .33-.01.67-.03 1l-.06 1-.06 1c-.02.33-.03.67-.03 1v12.75c0 .1 0 .19.01.28.01.09.02.17.02.25.04.71.15 1.29.34 1.76.19.46.73.76 1.64.9.02 0 .04 0 .06.01.02.01.04.01.06.01.1.02.18.04.25.07.07.03.11.1.13.22.01.05.01.07.01.09zm13.49-.85c0 .08-.04.17-.13.27s-.2.21-.34.32c-.16.12-.34.23-.53.34-.2.11-.4.2-.62.28-.2.08-.4.14-.6.19-.21.05-.39.07-.55.07-.51 0-.94-.16-1.28-.49-.34-.32-.62-.69-.84-1.11-.04.02-.08.04-.12.07-.04.03-.08.05-.12.07-.63.39-1.29.75-1.98 1.06-.69.31-1.41.47-2.15.47-.85 0-1.51-.23-1.98-.68-.47-.45-.71-1.1-.71-1.95 0-1.36.48-2.33 1.45-2.92.96-.59 2.03-1.01 3.19-1.27.37-.08.74-.15 1.11-.22.36-.07.71-.13 1.05-.19.04-.2.08-.39.12-.58.04-.19.06-.38.06-.58 0-.1 0-.2-.01-.31-.01-.11-.03-.22-.04-.34-.08-.67-.32-1.28-.72-1.83-.4-.55-.98-.83-1.73-.83-.37 0-.7.09-.97.28-.28.19-.41.49-.41.9 0 .06 0 .12.01.18s.02.11.02.15c0 .06 0 .12.01.18s.02.12.02.18c0 .28-.13.48-.38.62-.26.14-.54.24-.86.3-.18.02-.35.03-.53.04-.18.01-.32.01-.44.01h-.06a.6.6 0 0 1-.35-.16c-.1-.09-.15-.2-.15-.34l.18-.71c.12-.67.47-1.19 1.06-1.56.59-.37 1.23-.63 1.92-.77a7.943 7.943 0 0 1 1.6-.17 8.609 8.609 0 0 1 1.39.12c.51.08 1 .23 1.48.44.47.22.86.52 1.15.91.31.37.5.79.56 1.25.06.46.09.93.09 1.4 0 .45-.01.9-.03 1.34-.02.44-.03.89-.03 1.34l-.06 1.34c-.02.44-.03.89-.03 1.34s.08.81.25 1.08c.17.27.47.4.9.4.1 0 .19-.01.27-.03l.24-.06c.08-.02.16-.04.25-.06.09-.02.17-.03.25-.03.04 0 .08.02.12.06.04.04.06.08.06.12v.07zm8.54.39c-.76.78-1.72 1.17-2.88 1.17a19.998 19.998 0 0 1-2.01-.24c-.51-.08-.98-.18-1.4-.3-.42-.12-.63-.26-.63-.41 0-.12 0-.24.01-.35.01-.12.01-.24.01-.35 0-.1 0-.21.01-.32.01-.12.02-.24.02-.35 0-.12-.01-.23-.02-.34-.01-.11-.01-.22-.01-.34 0-.06 0-.11-.01-.16s-.01-.1-.01-.16c0-.16 0-.32-.01-.49s-.01-.34-.01-.52c0-.12.03-.21.09-.28.06-.07.16-.1.3-.1.12 0 .2.04.25.12.05.08.08.17.1.27.02.14.05.28.09.41.04.14.09.28.15.41.24.71.61 1.36 1.14 1.95s1.17.9 1.93.91c.53 0 1.01-.16 1.45-.47.43-.31.66-.76.68-1.33 0-.79-.27-1.37-.8-1.74-.53-.37-1.13-.71-1.8-1-.08-.02-.15-.04-.21-.07-.06-.03-.12-.06-.18-.1-.75-.31-1.43-.71-2.05-1.2-.62-.48-.93-1.25-.93-2.32 0-1.22.44-2.14 1.31-2.76.88-.62 1.87-.93 3-.93.16 0 .34.01.56.01.22.01.43.03.65.07.43.06.83.15 1.18.28.35.13.54.31.56.55 0 .18.01.35.03.52l.06.49c0 .16.01.32.03.49.02.17.03.34.03.52v.17c-.02.08-.04.15-.07.21-.03.06-.09.09-.19.09-.14 0-.3-.15-.47-.44-.18-.3-.39-.62-.65-.97-.28-.33-.59-.65-.94-.94-.35-.3-.79-.44-1.3-.44h-.14c-.43.04-.83.21-1.2.52-.36.31-.55.68-.55 1.14 0 .51.2.92.6 1.22.4.31.89.6 1.46.87.16.06.31.12.47.19.16.07.3.14.44.22.77.35 1.46.81 2.08 1.36.62.55.93 1.36.93 2.42-.01 1.11-.39 2.07-1.15 2.84zm11.22 0c-.76.78-1.72 1.17-2.88 1.17a19.998 19.998 0 0 1-2.01-.24c-.51-.08-.98-.18-1.4-.3-.42-.12-.63-.26-.63-.41 0-.12 0-.24.01-.35.01-.12.01-.24.01-.35 0-.1 0-.21.01-.32.01-.12.01-.24.01-.35 0-.12-.01-.23-.01-.34-.01-.11-.01-.22-.01-.34 0-.06 0-.11-.01-.16s-.01-.1-.01-.16c0-.16 0-.32-.02-.49-.01-.17-.01-.34-.01-.52 0-.12.03-.21.09-.28.06-.07.16-.1.3-.1.12 0 .2.04.25.12.05.08.08.17.1.27.02.14.05.28.09.41.04.14.09.28.15.41.24.71.61 1.36 1.14 1.95.52.59 1.17.9 1.93.91.53 0 1.01-.16 1.45-.47.43-.31.66-.76.68-1.33 0-.79-.27-1.37-.8-1.74-.53-.37-1.13-.71-1.8-1-.08-.02-.15-.04-.21-.07-.06-.03-.12-.06-.18-.1-.75-.31-1.43-.71-2.05-1.2-.62-.48-.93-1.25-.93-2.32 0-1.22.44-2.14 1.31-2.76.88-.62 1.87-.93 3-.93.16 0 .34.01.56.01.22.01.43.03.65.07.43.06.83.15 1.18.28.35.13.54.31.56.55 0 .18.01.35.03.52l.06.49c0 .16.01.32.03.49.02.17.03.34.03.52v.17c-.02.08-.04.15-.07.21-.03.06-.09.09-.19.09-.14 0-.3-.15-.47-.44-.18-.3-.39-.62-.65-.97-.28-.33-.59-.65-.94-.94-.35-.3-.79-.44-1.3-.44h-.14c-.43.04-.83.21-1.2.52-.36.31-.55.68-.55 1.14 0 .51.2.92.6 1.22.4.31.89.6 1.46.87.16.06.31.12.47.19.16.07.3.14.44.22.77.35 1.46.81 2.08 1.36s.93 1.36.93 2.42c-.01 1.11-.38 2.07-1.14 2.84zm10.65.74c-.13.05-.26.07-.4.07h-.36a9.908 9.908 0 0 1-1.54-.12c-.28-.02-.54-.04-.8-.07a6.62 6.62 0 0 0-.77-.04c-.22 0-.43.01-.63.04-.21.03-.42.05-.63.07a6.641 6.641 0 0 1-1.26.12c-.08 0-.14-.01-.18-.03a.34.34 0 0 1-.12-.12c0-.02 0-.04.01-.06.01-.02.02-.04.02-.06.04-.1.13-.2.27-.31.14-.11.29-.24.44-.4.18-.18.34-.42.49-.72.15-.3.22-.69.22-1.17l-.03-.5v-4.9-.12-.12c-.02-.43-.1-.83-.24-1.2-.14-.36-.48-.55-1.03-.55h-.08c-.1 0-.2-.01-.3-.04-.1-.03-.16-.1-.18-.22 0-.18.06-.3.19-.38.13-.08.26-.13.4-.15.06-.02.11-.03.16-.04.05-.01.09-.01.13-.01.61-.14 1.21-.31 1.8-.53a6.08 6.08 0 0 0 1.62-.89c.02 0 .04-.01.06-.03.02 0 .03 0 .03-.01s.01-.01.03-.01a.23.23 0 0 1 .09-.03c.1 0 .16.02.19.06.03.04.04.11.04.21v.38c-.02.06-.03.12-.03.19v8.37c0 .79.13 1.41.4 1.87.27.46.82.74 1.67.84h.06c.12.02.22.06.31.12s.13.14.13.24c.01.12-.05.2-.18.25zm12.15-2.26c-.04.45-.35.87-.94 1.25s-1.23.7-1.92.96c-.45.14-.89.25-1.3.34-.41.09-.76.13-1.03.13-1.71 0-3.06-.58-4.04-1.73s-1.48-2.54-1.48-4.18c0-1.89.69-3.47 2.08-4.75s3.01-1.92 4.86-1.92c.14 0 .29.01.44.01.16.01.3.03.44.04.45.06.88.17 1.28.34s.73.43.99.78c.02.02.04.04.06.07.02.03.04.06.06.1.08.12.15.24.22.37s.12.26.16.4c0 .04 0 .08.02.12.01.04.02.08.02.12 0 .2-.08.37-.24.52-.16.15-.32.28-.5.4-.1.06-.19.11-.28.16-.09.05-.17.09-.25.13-.04.02-.09.05-.15.09l-.18.12c-.02.02-.04.04-.07.06-.03.02-.05.03-.07.03-.08.04-.15.07-.21.1s-.12.04-.18.04c-.12 0-.21-.04-.27-.12-.06-.08-.11-.18-.15-.3 0-.02 0-.04-.01-.07-.01-.03-.01-.05-.01-.07v-.12c0-.04-.01-.08-.03-.12-.08-.59-.34-1.13-.8-1.61-.45-.48-.99-.72-1.62-.72-.77 0-1.37.29-1.8.87s-.73 1.22-.89 1.93a6.384 6.384 0 0 0-.12 1.22c0 .3.01.6.04.91.03.31.08.64.16.97.22 1.02.64 1.97 1.27 2.83.63.87 1.51 1.3 2.66 1.3.63 0 1.22-.11 1.79-.34.56-.23 1.09-.52 1.58-.87.02 0 .04-.01.06-.03.02-.02.04-.03.06-.04.02-.01.04-.01.06-.01.06 0 .11.02.15.06.04.04.07.09.09.15-.01.04-.01.06-.01.08zm13.13 1.13c0 .08-.04.17-.13.27s-.2.21-.34.32a4.404 4.404 0 0 1-1.15.62c-.2.08-.4.14-.61.19-.21.05-.39.07-.55.07-.51 0-.94-.16-1.28-.49-.34-.32-.62-.69-.84-1.11-.04.02-.08.04-.12.07-.04.03-.08.05-.12.07-.63.39-1.29.75-1.98 1.06-.69.31-1.41.47-2.15.47-.85 0-1.51-.23-1.98-.68-.47-.45-.71-1.1-.71-1.95 0-1.36.48-2.33 1.45-2.92.96-.59 2.03-1.01 3.19-1.27.37-.08.74-.15 1.11-.22.36-.07.71-.13 1.05-.19.04-.2.08-.39.12-.58.04-.19.06-.38.06-.58 0-.1-.01-.2-.01-.31-.01-.11-.02-.22-.04-.34-.08-.67-.32-1.28-.72-1.83-.4-.55-.98-.83-1.73-.83-.37 0-.7.09-.97.28-.28.19-.41.49-.41.9 0 .06 0 .12.02.18.01.06.01.11.01.15 0 .06 0 .12.01.18s.01.12.01.18c0 .28-.13.48-.38.62-.26.14-.54.24-.86.3-.18.02-.35.03-.53.04-.18.01-.32.01-.44.01h-.06a.6.6 0 0 1-.35-.16c-.1-.09-.15-.2-.15-.34l.18-.71c.12-.67.47-1.19 1.06-1.56.59-.37 1.23-.63 1.92-.77a7.943 7.943 0 0 1 1.6-.17 8.609 8.609 0 0 1 1.39.12c.51.08 1 .23 1.48.44.47.22.86.52 1.15.91.31.37.5.79.56 1.25.06.46.09.93.09 1.4 0 .45-.01.9-.03 1.34-.02.44-.03.89-.03 1.34l-.06 1.34c-.02.44-.03.89-.03 1.34s.08.81.25 1.08c.17.27.47.4.9.4.1 0 .19-.01.27-.03l.24-.06c.08-.02.16-.04.25-.06.09-.02.17-.03.25-.03.04 0 .08.02.12.06.04.04.06.08.06.12v.07zm7.67.85v.06c-.02.08-.04.15-.07.21-.03.06-.09.09-.19.09-.3 0-.59-.01-.89-.03l-.89-.06-.91-.06c-.3-.02-.59-.03-.89-.03h-.28c-.09 0-.18.01-.28.03-.16 0-.31 0-.46.01-.15.01-.3.03-.46.04-.24.02-.46.04-.66.06-.21.02-.4.03-.58.03h-.03c-.08 0-.15-.03-.21-.1a.328.328 0 0 1-.09-.22c0-.06.07-.15.22-.27.15-.12.32-.27.52-.44.16-.18.31-.39.46-.65.15-.26.23-.56.25-.91v-.3c0-.1.01-.21.03-.32v-.3-12.64-.18-.21c-.02-.51-.12-.99-.3-1.43-.18-.44-.56-.67-1.15-.69a.657.657 0 0 1-.28-.1c-.07-.05-.11-.14-.13-.28v-.03c0-.14.06-.24.18-.3s.26-.1.41-.12c.06-.02.12-.03.19-.04.07-.01.13-.02.19-.04h.06a35.657 35.657 0 0 1 1.01-.24c.33-.1.66-.21.99-.34.32-.13.63-.28.93-.46.04-.02.08-.04.12-.07.04-.03.08-.06.12-.1.04-.02.07-.04.1-.06.03-.02.06-.04.1-.06.04-.02.09-.04.15-.06.06-.02.11-.03.15-.03.1 0 .16.03.19.09s.04.13.04.21c0 .33-.01.67-.03 1l-.06 1-.06 1c-.02.33-.03.67-.03 1v12.75c0 .1 0 .19.02.28.01.09.01.17.01.25.04.71.15 1.29.34 1.76.19.46.73.76 1.64.9.02 0 .04 0 .06.01.02.01.04.01.06.01.1.02.18.04.25.07s.11.1.13.22c.01.05.01.07.01.09zm12.46-1.22c-1.16 1.29-2.6 1.93-4.31 1.93-.16 0-.31-.01-.46-.01-.15-.01-.3-.03-.46-.07-.3-.04-.58-.09-.86-.16s-.55-.14-.83-.22c-.1-.04-.19-.07-.28-.1-.09-.03-.18-.05-.28-.07-.26-.08-.49-.14-.71-.19-.22-.05-.41-.09-.59-.13-.35-.08-.62-.19-.81-.32-.19-.14-.3-.39-.34-.77-.04-.35-.1-.7-.19-1.03-.09-.33-.18-.67-.28-1-.02-.04-.03-.08-.04-.12-.01-.04-.01-.07-.01-.09-.12-.37-.22-.75-.31-1.14-.09-.38-.13-.76-.13-1.14v-.07-.07c.02-.12.05-.23.09-.32.04-.1.13-.16.27-.18.12 0 .21.03.27.09.06.06.1.14.12.24.06.2.12.4.19.61.07.21.15.41.25.6.51 1.16 1.25 2.23 2.23 3.2.97.97 2.1 1.46 3.38 1.46.98 0 1.85-.37 2.61-1.12.76-.75 1.14-1.6 1.14-2.57 0-1.04-.4-1.84-1.21-2.39-.81-.55-1.74-1.06-2.8-1.53-.18-.08-.35-.16-.53-.24-.18-.08-.35-.16-.53-.24-1.26-.55-2.42-1.24-3.48-2.07-1.06-.83-1.59-2.1-1.59-3.81 0-1.5.53-2.77 1.58-3.84 1.05-1.06 2.33-1.59 3.82-1.59.55 0 1.05.06 1.49.18.44.12.84.26 1.2.41.37.14.71.27 1 .4.3.13.57.19.83.19.1 0 .19-.02.28-.06.09-.04.17-.08.25-.12 0-.02 0-.03.01-.03s.01-.01.01-.03c.1-.04.19-.08.28-.13.09-.05.2-.07.34-.07s.23.04.27.13.06.18.06.28v.42c0 .1-.01.2-.03.3 0 .35.02.7.06 1.03s.09.67.15 1c.06.35.11.7.15 1.03.04.33.06.68.06 1.03v.12c-.02.12-.05.22-.09.3a.28.28 0 0 1-.21.15c-.12 0-.21-.04-.28-.13a.65.65 0 0 1-.13-.28c0-.02-.01-.04-.02-.06-.01-.02-.01-.04-.01-.06-.26-1.28-.93-2.42-2.02-3.44-1.09-1.01-2.31-1.52-3.64-1.52h-.17c-.77.04-1.47.34-2.11.9-.64.56-.96 1.24-.96 2.05 0 .87.35 1.54 1.05 2.02.7.48 1.54.93 2.52 1.34.24.1.48.2.72.31.25.11.5.21.75.31 1.26.55 2.42 1.26 3.47 2.14 1.05.88 1.58 2.2 1.58 3.97-.04 1.63-.62 3.1-1.78 4.39zm12.45.28c-.02.04-.05.09-.09.15-.04.06-.09.12-.15.18-.04.04-.08.07-.13.1s-.09.06-.13.1c-.08.06-.16.12-.25.18s-.15.1-.19.12c-.43.3-.9.51-1.39.63-.49.13-.99.19-1.51.19-1.02 0-1.8-.24-2.33-.71s-.8-1.23-.8-2.27v-7.76h-1.06a1.33 1.33 0 0 1-.34-.1c-.11-.05-.16-.15-.16-.31 0-.1.04-.18.12-.25.08-.07.16-.13.24-.19.2-.12.42-.29.66-.5.25-.22.5-.44.75-.68.12-.12.24-.24.35-.37.12-.13.24-.25.35-.37.26-.28.49-.55.69-.81.21-.27.38-.5.52-.69.02-.04.04-.07.06-.1.02-.03.04-.06.06-.1.06-.1.14-.2.24-.3.1-.1.22-.15.35-.15.04.02.06.04.06.07v3.46h2.1c.16 0 .3-.01.44-.04s.27-.08.38-.16c.02-.02.05-.04.09-.07.04-.03.08-.05.12-.07.04-.04.09-.08.16-.12a.38.38 0 0 1 .19-.06h.08c.06.02.11.04.15.06.04.02.06.06.06.12v.03c0 .06-.01.13-.04.22s-.06.18-.1.28v.06c-.04.08-.07.15-.09.22a.68.68 0 0 0-.03.19c-.06.24-.14.42-.25.55-.11.13-.29.19-.55.19h-2.72v7.02c0 .59.09 1.12.28 1.59.19.47.64.71 1.37.71.12 0 .26-.01.41-.03.16-.02.32-.05.5-.09.2-.06.39-.12.59-.19.2-.07.34-.15.44-.25.04-.04.07-.07.1-.09.03-.02.06-.03.1-.03h.03c.06 0 .1.03.13.09s.05.12.07.18c.02.04.03.07.03.1.04.02.04.05.04.07zm12.87.09c0 .08-.04.17-.13.27s-.2.21-.34.32c-.16.12-.34.23-.53.34-.2.11-.4.2-.62.28-.2.08-.4.14-.6.19-.21.05-.39.07-.55.07-.51 0-.94-.16-1.28-.49-.34-.32-.62-.69-.84-1.11-.04.02-.08.04-.12.07-.04.03-.08.05-.12.07-.63.39-1.29.75-1.98 1.06-.69.31-1.41.47-2.15.47-.85 0-1.51-.23-1.98-.68-.47-.45-.71-1.1-.71-1.95 0-1.36.48-2.33 1.45-2.92.96-.59 2.03-1.01 3.19-1.27.37-.08.74-.15 1.11-.22.36-.07.71-.13 1.05-.19.04-.2.08-.39.12-.58.04-.19.06-.38.06-.58 0-.1 0-.2-.01-.31-.01-.11-.03-.22-.04-.34-.08-.67-.32-1.28-.72-1.83-.4-.55-.98-.83-1.73-.83-.37 0-.7.09-.97.28-.28.19-.41.49-.41.9 0 .06 0 .12.02.18.01.06.02.11.02.15 0 .06 0 .12.01.18s.01.12.01.18c0 .28-.13.48-.38.62-.26.14-.54.24-.86.3-.18.02-.35.03-.53.04-.18.01-.32.01-.44.01h-.06a.6.6 0 0 1-.35-.16c-.1-.09-.15-.2-.15-.34l.18-.71c.12-.67.47-1.19 1.06-1.56.59-.37 1.23-.63 1.92-.77a7.943 7.943 0 0 1 1.6-.17 8.609 8.609 0 0 1 1.39.12c.51.08 1 .23 1.48.44.47.22.86.52 1.15.91.31.37.5.79.56 1.25.06.46.09.93.09 1.4 0 .45-.01.9-.03 1.34-.02.44-.03.89-.03 1.34l-.06 1.34c-.02.44-.03.89-.03 1.34s.08.81.25 1.08c.17.27.47.4.9.4.1 0 .19-.01.27-.03l.24-.06c.08-.02.16-.04.25-.06.09-.02.17-.03.25-.03.04 0 .08.02.12.06.04.04.06.08.06.12v.07zm9.56-.09c-.02.04-.05.09-.09.15-.04.06-.09.12-.15.18-.04.04-.08.07-.13.1s-.09.06-.13.1c-.08.06-.16.12-.25.18s-.15.1-.19.12c-.43.3-.9.51-1.39.63-.49.13-.99.19-1.51.19-1.02 0-1.8-.24-2.33-.71s-.8-1.23-.8-2.27v-7.76h-1.06a1.33 1.33 0 0 1-.34-.1c-.11-.05-.16-.15-.16-.31 0-.1.04-.18.12-.25.08-.07.16-.13.24-.19.2-.12.42-.29.66-.5.25-.22.5-.44.75-.68.12-.12.24-.24.35-.37.12-.13.24-.25.35-.37.26-.28.49-.55.69-.81.21-.27.38-.5.52-.69.02-.04.04-.07.06-.1.02-.03.04-.06.06-.1.06-.1.14-.2.24-.3.1-.1.22-.15.35-.15.04.02.06.04.06.07v3.46h2.1c.16 0 .3-.01.44-.04s.27-.08.38-.16c.02-.02.05-.04.09-.07.04-.03.08-.05.12-.07.04-.04.09-.08.16-.12a.38.38 0 0 1 .19-.06h.08c.06.02.11.04.15.06.04.02.06.06.06.12v.03c0 .06-.01.13-.04.22s-.06.18-.1.28v.06c-.04.08-.07.15-.09.22a.68.68 0 0 0-.03.19c-.06.24-.14.42-.25.55-.11.13-.29.19-.55.19h-2.72v7.02c0 .59.09 1.12.28 1.59.19.47.64.71 1.37.71.12 0 .26-.01.41-.03.16-.02.32-.05.5-.09.2-.06.39-.12.59-.19.2-.07.34-.15.44-.25.04-.04.07-.07.1-.09.03-.02.06-.03.1-.03h.03c.06 0 .1.03.13.09s.05.12.07.18c.02.04.03.07.03.1.04.02.04.05.04.07zm7.72 1.22c-.13.05-.26.07-.4.07h-.36a9.908 9.908 0 0 1-1.54-.12c-.28-.02-.54-.04-.8-.07a6.62 6.62 0 0 0-.77-.04c-.22 0-.43.01-.63.04-.21.03-.42.05-.63.07a6.641 6.641 0 0 1-1.26.12c-.08 0-.14-.01-.18-.03a.34.34 0 0 1-.12-.12c0-.02 0-.04.01-.06.01-.02.01-.04.01-.06.04-.1.13-.2.27-.31.14-.11.29-.24.44-.4.18-.18.34-.42.49-.72.15-.3.22-.69.22-1.17l-.03-.5v-4.9-.12-.12c-.02-.43-.1-.83-.24-1.2-.14-.36-.48-.55-1.03-.55h-.08c-.1 0-.2-.01-.3-.04-.1-.03-.16-.1-.18-.22 0-.18.06-.3.19-.38.13-.08.26-.13.4-.15.06-.02.11-.03.16-.04.05-.01.09-.01.13-.01.61-.14 1.21-.31 1.8-.53a6.08 6.08 0 0 0 1.62-.89c.02 0 .04-.01.06-.03.02 0 .03 0 .03-.01s.01-.01.03-.01a.23.23 0 0 1 .09-.03c.1 0 .16.02.19.06.03.04.04.11.04.21v.38c-.02.06-.03.12-.03.19v8.37c0 .79.13 1.41.4 1.87.27.46.82.74 1.67.84h.06c.12.02.22.06.31.12s.13.14.13.24c.02.12-.04.2-.17.25zm12.5-1.44c-1.28 1.25-2.87 1.87-4.78 1.87-1.67 0-3.14-.54-4.4-1.62-1.26-1.08-1.89-2.49-1.89-4.22 0-1.89.65-3.48 1.96-4.78 1.31-1.3 2.9-1.95 4.77-1.95 1.67 0 3.13.57 4.38 1.7s1.87 2.55 1.87 4.26c.01 1.91-.63 3.49-1.91 4.74zm19.26 1.43c-.13.06-.26.09-.4.09h-.36c-.22 0-.43-.01-.65-.03l-.65-.06c-.24-.04-.46-.07-.68-.09-.22-.02-.43-.03-.65-.03-.26 0-.51.01-.77.03-.26.02-.5.04-.74.06-.24.04-.46.07-.68.09-.22.02-.41.03-.59.03-.08 0-.15-.03-.21-.09a.445.445 0 0 1-.12-.21c0-.06.02-.11.06-.16.04-.05.09-.09.15-.13.08-.04.16-.08.24-.13.08-.05.17-.1.27-.16.16-.14.31-.34.46-.62.15-.28.22-.68.22-1.21v-3.6c0-.18-.01-.36-.01-.55-.01-.19-.03-.38-.07-.58-.12-.79-.39-1.51-.83-2.15-.43-.65-1.1-.97-2.01-.97-.69 0-1.31.22-1.86.65-.55.43-.83 1.01-.83 1.74v4.81c0 .77.15 1.39.46 1.87.3.48.88.74 1.73.78.1.02.18.04.25.07s.11.09.13.19c0 .14-.04.25-.12.32-.08.08-.2.12-.35.12-.3 0-.59-.01-.89-.03-.3-.02-.58-.05-.86-.09-.3-.02-.59-.04-.89-.07-.3-.03-.59-.04-.89-.04-.2 0-.4.01-.6.03l-.61.06c-.22.04-.42.07-.62.09-.2.02-.4.03-.62.03h-.06c-.1 0-.19-.01-.27-.04-.08-.03-.12-.11-.12-.25 0-.04.02-.08.04-.12s.06-.08.1-.12c.08-.06.16-.11.25-.16s.19-.12.31-.22c.16-.16.31-.38.46-.68.15-.3.22-.72.22-1.27V162.59v-.32c0-.12-.01-.24-.03-.35-.02-.28-.09-.54-.22-.78-.13-.25-.36-.37-.69-.37H372.01c-.08 0-.14-.02-.19-.07a.249.249 0 0 1-.07-.19c0-.22.09-.37.27-.46.18-.09.36-.15.56-.19.06-.02.12-.03.18-.04.06-.01.12-.02.18-.04.06 0 .11 0 .16-.01s.09-.02.13-.04c.53-.12 1.05-.27 1.56-.47.51-.2.99-.46 1.45-.8.02-.02.04-.03.07-.04.03-.01.05-.01.07-.01.08 0 .13.02.16.06.03.04.04.1.04.18v.75c0 .25-.02.5-.06.75v.16c0 .07.01.14.03.22 0 .1.02.19.06.28.04.09.1.13.18.13.08 0 .21-.1.38-.31.18-.21.43-.44.77-.69.31-.26.7-.49 1.17-.69.46-.21 1.02-.31 1.67-.31 1.91 0 3.11.63 3.6 1.89.49 1.26.74 2.68.74 4.25v2.39c0 .79.1 1.44.3 1.95.2.51.73.85 1.59 1 .12 0 .23.02.32.07.1.05.15.14.15.28.03.1-.03.2-.16.26zm6.54-1.57c-.1.12-.2.23-.3.33l-.1.1a.36.36 0 0 1-.1.07c-.1.08-.2.18-.31.31-.11.13-.23.26-.37.4l-.22.22a2 2 0 0 1-.22.19c-.12.1-.24.19-.37.27-.13.08-.25.12-.37.12s-.29-.07-.52-.22c-.23-.15-.47-.33-.72-.55-.1-.08-.2-.16-.3-.25-.1-.09-.19-.18-.27-.28-.22-.24-.4-.46-.56-.66-.16-.21-.24-.37-.24-.49s.08-.28.25-.49c.17-.21.38-.43.63-.66l.19-.19a2 2 0 0 1 .22-.19c.28-.26.54-.47.78-.65.25-.18.4-.27.46-.27.1 0 .27.08.5.25.24.17.48.36.74.58l.24.24.24.24c.24.24.44.47.61.69.17.23.25.39.25.49 0 .15-.05.28-.14.4zm13.43.14c-1.28 1.25-2.87 1.87-4.78 1.87-1.67 0-3.14-.54-4.4-1.62-1.26-1.08-1.89-2.49-1.89-4.22 0-1.89.65-3.48 1.96-4.78 1.31-1.3 2.9-1.95 4.77-1.95 1.67 0 3.13.57 4.38 1.7s1.87 2.55 1.87 4.26c0 1.91-.64 3.49-1.91 4.74zm13.92-8.56a4.5 4.5 0 0 1-.3.63c-.08.18-.18.34-.3.5-.12.16-.24.3-.35.41a.8.8 0 0 1-.21.15c-.08.04-.15.06-.21.06-.14 0-.29-.06-.44-.19-.16-.13-.34-.26-.56-.4-.2-.16-.41-.3-.65-.41-.24-.12-.5-.18-.8-.18-.65 0-1.1.23-1.34.7-.25.46-.37.98-.37 1.55v3.46c0 .77.15 1.46.44 2.07.3.61.87.98 1.71 1.1.12.02.22.05.31.09.09.04.13.13.13.27 0 .08-.02.15-.04.21-.03.06-.09.1-.19.12-.28 0-.56-.01-.86-.03-.3-.02-.6-.05-.91-.09-.34-.02-.66-.04-.99-.07-.32-.03-.65-.04-.99-.04-.22 0-.43.01-.65.03l-.65.06c-.24.02-.46.04-.68.06-.22.02-.43.03-.65.03-.1 0-.18-.03-.25-.1a.332.332 0 0 1-.1-.25c0-.08.02-.14.07-.19.05-.05.11-.09.19-.13.06-.04.13-.08.22-.13s.18-.1.28-.16c.18-.14.34-.34.5-.62.16-.28.24-.7.24-1.27v-.16-.13c0-.04 0-.08-.02-.13-.01-.05-.01-.1-.01-.16v-5.18c0-.59-.08-1.03-.24-1.3-.16-.28-.55-.44-1.18-.5-.08 0-.15-.03-.22-.09a.264.264 0 0 1-.1-.21c0-.12.04-.21.12-.27.08-.06.17-.1.27-.12.51-.08 1-.2 1.48-.35s.93-.34 1.39-.56c.22-.1.42-.2.62-.3.2-.1.4-.2.62-.3h.03c.08 0 .14.03.19.09.05.06.07.14.07.24 0 .18-.01.35-.03.53-.02.18-.03.34-.03.5l-.06.53c-.02.18-.03.35-.03.53v.12c.02.06.04.11.07.16.03.05.07.08.13.1h.03c.08 0 .23-.13.44-.38.22-.26.46-.54.74-.86l.41-.41c.13-.13.28-.27.41-.38.16-.12.31-.22.47-.31.16-.09.3-.13.44-.13h.03c.12 0 .28.05.49.15.21.1.42.22.63.35.12.08.24.16.35.25.12.09.23.17.32.25.18.16.32.31.44.44.12.14.19.26.21.35.04.05 0 .19-.08.4zm12.84-1.69c-.04.34-.09.68-.15 1.02-.02.12-.03.23-.04.34-.01.11-.02.22-.04.34-.02.2-.11.36-.27.49-.16.13-.34.24-.53.34-.04.02-.09.04-.15.07-.06.03-.12.05-.18.07 0 .1 0 .2.02.31.01.11.02.21.04.31s.03.2.04.31c.01.11.01.21.01.31 0 1.06-.39 1.88-1.18 2.46-.79.58-1.65.96-2.6 1.14-.24.06-.47.1-.71.12-.24.02-.46.03-.68.03-.18 0-.35-.01-.52-.03l-.49-.06-.49-.06c-.17-.02-.33-.03-.49-.03a.97.97 0 0 0-.78.38c-.21.26-.31.54-.31.86 0 .39.15.67.46.84.3.17.63.27.99.31.14.02.27.03.38.04.12.01.24.01.35.01h2.13c.43.02.87.04 1.3.07.43.03.86.09 1.27.19.65.14 1.2.39 1.64.77.44.37.66.9.66 1.59 0 1.34-.48 2.32-1.43 2.95a7.84 7.84 0 0 1-3.17 1.21c-.28.04-.55.07-.81.09-.27.02-.53.03-.78.03-.3 0-.65-.01-1.08-.01-.42-.01-.85-.05-1.28-.13-.79-.1-1.51-.32-2.15-.66-.65-.34-.97-.9-.97-1.67 0-.43.15-.83.44-1.18.3-.35.65-.58 1.06-.68.02 0 .06 0 .13-.01s.13-.03.19-.04c.08-.02.16-.04.24-.07.08-.03.12-.06.12-.1 0-.06-.06-.16-.19-.3-.13-.14-.26-.3-.4-.47-.16-.18-.3-.39-.43-.63-.13-.25-.19-.51-.19-.78 0-.49.09-.87.27-1.14.18-.27.37-.5.59-.69l.09-.09c.14-.12.27-.25.38-.38.12-.14.21-.3.27-.5v-.03c0-.1-.04-.18-.12-.25-.08-.07-.16-.13-.24-.19l-.12-.06-.12-.06c-.31-.18-.6-.45-.84-.81-.25-.36-.44-.74-.58-1.14-.06-.2-.1-.39-.13-.58-.03-.19-.04-.36-.04-.52 0-1.26.47-2.23 1.42-2.91.94-.68 1.99-1.07 3.13-1.17.1-.02.2-.03.3-.03h.3c.69 0 1.36.1 2.01.3.65.2 1.25.5 1.8.92a4.3 4.3 0 0 0 1.43-.47c.42-.24.67-.66.75-1.27 0-.1.02-.17.06-.21.04-.04.1-.07.18-.09.1 0 .17.02.21.06s.07.11.09.21c-.01.33-.03.67-.07 1.01z"></path>
        <!-- circle inside upper part of "g" at end of URL -->
    <path class="st2" d="M429.89 162.08c-.1-.65-.32-1.24-.66-1.77s-.88-.8-1.61-.8c-.75 0-1.32.28-1.71.83-.39.55-.62 1.15-.68 1.8-.02.08-.03.15-.03.22v.22c0 .22.01.44.03.68.02.24.06.48.12.74.14.61.38 1.17.72 1.68.34.51.85.77 1.52.77.77 0 1.33-.28 1.68-.83.35-.55.57-1.15.65-1.8.02-.12.03-.24.04-.37.01-.13.02-.25.02-.37 0-.16-.01-.32-.02-.5 0-.17-.03-.34-.07-.5zM424.31 173.27c0 .65.25 1.15.75 1.49.5.34 1.05.58 1.64.69a6.096 6.096 0 0 0 1.19.12 9.582 9.582 0 0 0 1.41-.12c.53-.1 1.02-.29 1.48-.56.45-.28.68-.71.68-1.3 0-.26-.07-.48-.21-.66a1.34 1.34 0 0 0-.56-.43c-.1-.04-.31-.08-.62-.13s-.68-.09-1.09-.13l-.44-.06c-.16-.02-.31-.04-.44-.06-.57-.06-1.11-.11-1.61-.16s-.83-.07-.99-.07c-.35.04-.64.19-.86.46-.22.27-.32.57-.32.9v.02z"></path>
    </g>
    <path class="st0" d="M345.15 16.81H335c-.3 0-.54-.24-.54-.54s.24-.54.54-.54h10.15c.3 0 .54.24.54.54s-.24.54-.54.54z"></path>
    <g>
        <!-- upper trebel clef -->
        <path class="st1" d="M197.21 45.85c-2.72-1.71-2.94-5.85.5-6.84l1.8 8.85s-5.07 1.76-7.98-2.65c-3.64-5.53 1.35-9.62 4.78-13l.87 3.92-.05.02c-5.69 2.14-4.05 9.83.08 9.7zm1.31-6.94l1.8 8.61c3.93-1.49 3.16-8.8-1.8-8.61zm-2.29-11.58c2.27-1.22 5.47-8.21 3.18-9.33-2.3-1.13-4.67 3.51-3.18 9.33zm.81 4.15c4.13-4.01 6.85-10.86 1.65-17.61-4.32 2.64-4.82 8.62-3.23 14.14-3.56 3.23-7.46 7.63-6.69 12.77.37 2.45 1.56 4.58 2.6 5.58 1.61 1.54 3.58 3.07 8.18 2.41 0 0 1.61 4.53 1 7-.61 2.47-4.18 3.98-5.91 1.66 3.6-.17 3.03-5.02.37-5.09-2.7-.07-4.07 3.7-1.44 5.89 1.67 1.39 4.13 1.5 6 .15 3.03-2.2 1.61-6.79.95-9.9 6.92-3.38 4.26-13.55-2.58-12.51l-.9-4.49z"></path>
        <!-- 2nd sharp in upper staff -->
        <path class="st2" d="M222.09 26.77l-.02-4.35-1.02.26.04 4.5v.24l-.23.06-2.64.67-.38.1v-.39l-.02-4.35-1 .25.02 4.51v.24l-.23.06-1.07.27v2.4l.91-.25.38-.11v.4l.04 3.71v.23l-.22.07-1.12.33v2.3l.96-.23.37-.09v.39l.04 4.69 1-.25-.02-4.85v-.24l.23-.06 2.62-.67.38-.1v.39l.04 4.69 1-.25-.02-4.85v-.22l.21-.07 1.21-.4v-2.29l-1.05.29-.38.11v-.4l-.04-3.71v-.23l.23-.06 1.26-.35v-2.32l-1.11.25-.37.08v-.4zm-4 3.78l2.62-.67.38-.1v.39l.04 3.71v.24l-.23.06-2.64.67-.38.1v-.39l-.02-3.71v-.24l.23-.06zM213.89 17.19l-.02-4.35-1.02.26.04 4.5v.24l-.23.06-2.64.67-.38.1v-.39l-.02-4.35-1 .25.02 4.51v.24l-.23.06-1.07.27v2.4l.91-.25.38-.11v.4l.04 3.71v.23l-.22.07-1.12.33v2.3l.96-.23.37-.09v.39l.04 4.69 1-.25-.02-4.85v-.24l.23-.06 2.62-.67.38-.1v.39l.04 4.69 1-.25-.02-4.85v-.22l.21-.07 1.21-.4v-2.29l-1.05.29-.38.11v-.4l-.04-3.71v-.23l.23-.06 1.26-.35v-2.32l-1.11.25-.37.08v-.4zm-3.99 3.79l2.62-.67.38-.1v.39l.04 3.71v.24l-.23.06-2.64.67-.38.1v-.39l-.02-3.71v-.24l.23-.06z"></path>
    </g>
    <g>
        <!-- lower treble clef -->
        <path class="st1" d="M197.21 112.66c-2.72-1.71-2.94-5.85.5-6.84l1.8 8.85s-5.07 1.76-7.98-2.65c-3.64-5.53 1.35-9.62 4.78-13l.87 3.92-.05.02c-5.69 2.13-4.05 9.82.08 9.7zm1.31-6.94l1.8 8.61c3.93-1.49 3.16-8.81-1.8-8.61zm-2.29-11.59c2.27-1.22 5.47-8.21 3.18-9.33-2.3-1.12-4.67 3.52-3.18 9.33zm.81 4.16c4.13-4.01 6.85-10.86 1.65-17.61-4.32 2.64-4.82 8.62-3.23 14.14-3.56 3.23-7.46 7.63-6.69 12.77.37 2.45 1.56 4.58 2.6 5.58 1.61 1.54 3.58 3.07 8.18 2.41 0 0 1.61 4.53 1 7-.61 2.47-4.18 3.98-5.91 1.66 3.6-.17 3.03-5.02.37-5.09-2.7-.07-4.07 3.7-1.44 5.89 1.67 1.39 4.13 1.5 6 .15 3.03-2.2 1.61-6.79.95-9.9 6.92-3.38 4.26-13.55-2.58-12.51l-.9-4.49z"></path>
        <!-- lowest sharp -->
        <path class="st2" d="M222.09 93.57l-.02-4.35-1.02.26.04 4.5v.24l-.23.06-2.64.67-.38.1v-.39l-.02-4.35-1 .25.02 4.51v.24l-.23.06-1.07.27v2.4l.91-.25.38-.11v.4l.04 3.71v.23l-.22.07-1.12.33v2.3l.96-.23.37-.09v.39l.04 4.69 1-.25-.02-4.85v-.24l.23-.06 2.62-.67.38-.1v.39l.04 4.69 1-.25-.02-4.85v-.22l.21-.07 1.21-.4v-2.29l-1.05.29-.38.11v-.4l-.04-3.71v-.23l.23-.06 1.26-.35v-2.32l-1.11.25-.37.08v-.4zm-4 3.79l2.62-.67.38-.1v.39l.04 3.71v.24l-.23.06-2.64.67-.38.1v-.39l-.02-3.71v-.24l.23-.06zM213.89 84l-.02-4.35-1.02.26.04 4.5v.24l-.23.06-2.64.67-.38.1v-.39l-.02-4.35-1 .25.02 4.51v.24l-.23.06-1.07.27v2.4l.91-.25.38-.11v.4l.04 3.71v.23l-.22.07-1.12.33v2.3l.96-.23.37-.09v.39l.04 4.69 1-.25-.02-4.85v-.24l.23-.06 2.62-.67.38-.1v.39l.04 4.69 1-.25-.02-4.85v-.22l.21-.07 1.21-.4v-2.29l-1.05.29-.38.11v-.4l-.04-3.71v-.23l.23-.06 1.26-.35v-2.32l-1.11.25-.37.08V84zm-3.99 3.79l2.62-.67.38-.1v.39l.04 3.71v.24l-.23.06-2.64.67-.38.1v-.39l-.02-3.71v-.24l.23-.06z"></path>
    </g>
    <!-- bracket in front of system: -->
    <path class="st2" d="M177.07 115.42c-20.3-21.47 7.21-30.98-9.07-45.85 16.04-15.55-8.13-20.89 5.24-41.02 1.63-2.46 4.87-6.2 5.14-5.94.09.09-.43 1.01-1.16 2.04-10.23 14.38-.6 20.29-1.13 32.57-.26 6.06-3.26 8.36-7.16 12.28 4.24 4.35 7.51 7.11 7.15 13.48-.7 12.26-8.14 17.36.7 30.83.94 1.44 1.66 2.67 1.59 2.74-.06.06-.65-.44-1.3-1.13z"></path>
    <path class="st0" d="M347.15 24.98c-1.23.88-2.43 1.16-3.51 1.09-1.78-.11-3.24-1.17-3.96-2.01 0 0 3.79 2.14 7.47.92zM408.57 24.43c-1.23.88-2.43 1.16-3.51 1.09-1.78-.11-3.24-1.17-3.96-2.01 0 0 3.78 2.14 7.47.92z">
    </path>
</svg>
